<svg version="1" xmlns="http://www.w3.org/2000/svg" width="3413.333" height="3413.333" viewBox="0 0 2560.000000 2560.000000"><path d="M0 1280v1280h2560V0H0v1280zM1303 255c0 .5-.6 1-1.2 1-.7 0-2.3 1.1-3.5 2.4-2.6 2.7-6.4 4.1-5.7 2.1.3-.7 2.6-2.4 5.2-3.8 5.5-3.1 5.2-3 5.2-1.7zm-86.2 102.8c.6 1.8-1.5 1.4-2.2-.4-.4-1-.1-1.4.6-1.2.6.2 1.4 1 1.6 1.6zm-71 152.6c9 4.6 10.5 9.2 2 6-2.4-.9-5.3-1.5-6.4-1.5-1.4 0-2.4-.7-2.7-1.9-.3-1.1-1.7-2.4-3.1-3-3.7-1.4-3.2-2 1.4-2 2.3 0 6.1 1 8.8 2.4zm32.8 29.8l1.7 3.3-2.7-2.4c-2.7-2.5-3.3-4.1-1.6-4.1.5 0 1.7 1.5 2.6 3.2zm10.5 17.6c1.3 3.9.5 8.2-1.6 8.2-.8 0-1.5.5-1.5 1.2 0 1.4-3 4.8-4.2 4.8-1.1 0 1-4 3.2-6.2 1.8-1.7 1.7-3.1-.5-13.4l-.7-2.9 2.1 2.5c1.1 1.4 2.6 4 3.2 5.8zm62.9 15.4c4.1 2 9 3.9 10.8 4.3 4 .8 5.1 2.9 2.8 5.4-1.2 1.3-1.4 2.1-.7 2.6 1.6 1 1.3 4.2-.5 4.9-3.7 1.4-4.6.7-4-2.9.5-2.5.3-3.5-.6-3.5-2.1.1-4.8 2.6-4.8 4.4 0 1-.7 2.4-1.5 3.2-2 2.1-1.9 3.5.5 4.1 1.2.3 2.4 1.9 3 4.2 1.6 5.7 1.4 6.3-2.2 5.9-2.8-.3-3.3-.8-3.9-3.8-.4-1.8-1.5-4-2.4-4.6-1.6-1.2-1.4-4.4.5-6.9.4-.6 1.1-3.5 1.4-6.5.5-3.5.4-5-.2-4.1-1.2 1.6-5.2-.2-5.2-2.3 0-2-2.3-2.6-9.6-2.6-6.9 0-12.6 1.8-15.9 5.1-1.1 1.1-3.2 2.8-4.6 3.9-3.4 2.5-4.7 7-2.4 8.6 1.5 1.1 1.4 1.3-.6 1.9-4 1.3-5.1-3.2-1.9-8 1.1-1.7 2-3.6 2-4.4 0-2 6.8-7.8 12.5-10.7 4.2-2.1 6.1-2.4 12.5-2.2 6.2.3 8.8.9 15 4zm-74.6 10.4c.3.9.6 2.8.6 4.3 0 1.7 1.1 3.7 2.8 5.4 5.5 5.2 23.4 10 28.5 7.5.9-.5 3.2-1 5-1.1 2.3-.2 4.6-1.6 8-4.9 6.8-6.6 13.9-8.4 18.4-4.6 2.3 1.9 1.4 2.7-3.3 3-4.7.3-5 .6-7.4 5.8-.4.8-1.8 2.1-3.3 2.8-1.4.7-4.9 3.9-7.8 7.2-2.9 3.3-5.6 6-6 6-.4 0-1.1-1-1.5-2.3-.9-3-2.3-3.7-5.1-2.6-1.4.5-4.2.6-6.4.3-3.2-.5-3.7-.9-2.8-2 1.2-1.5 1.9-1.2-13.6-7-4.9-1.9-9.7-3.4-10.5-3.4-.8 0-2.5-2.1-3.8-4.8-3-6.4-2.9-7.5.8-6.7 2.2.5 3 .3 3-.7 0-1.5 1.9-3.8 3.1-3.8.4 0 1 .7 1.3 1.6zm47.6-.6c0 .5-.2 1-.4 1-.3 0-.8-.5-1.1-1-.3-.6-.1-1 .4-1 .6 0 1.1.4 1.1 1zm35.8 9.2c1.5 1.5 1.6 4.5.2 5.3-1.3.8-3.5-1.4-4.2-4.3-.5-1.6-.2-2.2 1.1-2.2.9 0 2.2.5 2.9 1.2zm14.2 7.8c1 .5 6.4 1.7 11.9 2.6 9.7 1.5 10.2 1.5 15.4-.4 4.2-1.6 6.2-1.8 9.7-1.2 8.7 1.7 8.9 2.5.7 3.1-6.8.4-8.1.8-9.8 3-1 1.3-1.6 3.2-1.3 4.2.4 1.1-.1 2-1.5 2.5-1.9.7-1.9.8-.3 2.8.9 1.2 4 3.6 6.7 5.4 2.8 1.8 6 4.2 7.2 5.2 1.6 1.5 2.9 1.8 5.1 1.4 1.9-.5 3.3-.2 4.1.8 1.4 1.7-.1 3.1-2.5 2.2-1.2-.5-1 .3.6 3 1.6 2.5 2.1 4.4 1.6 6.5-.5 2.5-.2 3.1 2 3.9 1.4.6 5.7 1 9.5 1 3.9 0 7.8.4 8.8 1 1 .5 3.4 1 5.4 1.2 3.8.2 5.8 2.5 3.5 4-.7.4-2.9.8-4.8.9-3.2 0-3.3.1-1.3 1.1 2.3 1.1 3.9 3.8 2.3 3.8-2.9 0 1.2 7.9 5 10 1.5.8 2.4.6 3.9-.9 1.8-1.8 2-3.1 1.7-14.3-.2-6.8-.7-13.7-1.1-15.3-1.4-5.7 2.5-.4 4.4 6.1 1.3 4.6 2.2 5.9 3.7 5.9 1.3 0 1.9.7 1.9 2.1 0 1.2 1.7 3.9 3.6 6.1 2 2.2 4.4 5.4 5.5 7.1 2 3.5 4.4 4.2 4.4 1.4 0-.9.3-2.6.6-3.7.4-1.6-.2-2.3-2.5-3.2-3.3-1.2-4.3-4.3-1.4-4.3.9 0 2.5.7 3.5 1.7 1.5 1.3 2.3 1.4 4.4.5 4-1.9 5.8-1.4 9 2.1 2 2.3 4.2 3.6 6.9 4.1 2.2.4 6.3 1.8 9 3.1 2.8 1.3 6.7 2.6 8.7 3 3.3.6 4 .4 6.6-2.5 3.7-3.9 8.1-4.3 11.7-1 1.4 1.3 2.5 2.9 2.5 3.6 0 2.3 6.8 6.7 9.2 6 1.3-.3 4.4.2 7.1 1.1 4.7 1.7 4.7 1.7 6.4-.6 1.3-2 2.2-2.2 5.4-1.8 4.5.6 4.5.5 2.2-3.4-1.3-2.3-1.5-3.1-.5-4.1.9-.9.6-1.5-1.6-2.4l-2.7-1.2 2.8-.1c2-.1 3 .5 3.4 1.8.3 1.1 1.8 2.5 3.4 3.1 4 1.7 11.6 10.2 13.9 15.6l2 4.6 2-2.5c1.1-1.4 2-3 2-3.6 0-.6.4-1.1.8-1.1 1.4 0 3.2 2.4 3.2 4.3 0 1.3.5 1.7 1.5 1.3 1.1-.4 1.5.1 1.5 1.9 0 2.5 1.4 3.3 2.5 1.5.3-.5 1.6-.9 2.8-.8 1.2 0 4.5-.2 7.2-.5 21-2.5 26.5-2.9 27.7-1.9.7.5 3.7 1.7 6.6 2.6 3 .8 7 2.9 8.9 4.6 1.9 1.7 4.6 3.5 5.9 4 1.3.5 2.4 1.4 2.4 1.9s.9 1.1 2 1.4c1.1.3 1.8.1 1.4-.4-.6-1 6.5-1.2 9-.3.9.3 1.6 1.2 1.6 1.9s1 2 2.3 2.9c2 1.4 2 1.5.2 1-1.6-.4-1.7-.3-.5.4 2.3 1.5 6.3 2.5 5.7 1.5-.3-.5.8-.8 2.5-.7 1.7.1 3.5.8 3.9 1.6.5.7.9.9.9.4s.8-.2 1.8.6c.9.8 2.4 1.8 3.2 2.2 3.8 1.7 6.3 3.5 7.6 5.5.9 1.2 2.1 2.1 2.7 2 2.2-.3 7.7 1.3 7.7 2.3 0 .5 1 .7 2.3.3 1.9-.5 1.7-.2-1 2.3-1.8 1.6-3.3 3.4-3.3 4 0 2.9 5 12.1 7.6 14 1.6 1.1 7.4 3.6 12.9 5.5 27.6 9.7 43.1 18.2 61.8 34.2 18.3 15.7 49 58.2 60.2 83.2 1.5 3.5 3.1 6 3.6 5.7.5-.3.6.3.2 1.2-.5 1.3-.3 1.5.7.9.8-.5 1.1-.4.7.2-1 1.6 1.3 8.4 2.5 7.7.7-.4.8-.2.4.5-1 1.6.3 5.3 1.6 4.5.7-.4.8-.2.4.4-1 1.6 1.4 10.3 2.7 9.5.6-.4.8 0 .4 1.1-.4.9-.3 1.5.2 1.1 1.3-.7 4.1 5.2 4.1 8.7 0 3.3 2.5 8.8 4 8.8.6 0 1 .7 1 1.5s-.5 1.5-1 1.5c-1.2 0-.7 3.7 2 13.2 2.5 8.9 6.1 16.8 10.5 22.8 1.9 2.6 3.5 5.3 3.5 5.9 0 .6.4 1.1.9 1.1s1.1.6 1.4 1.4c1.3 3.2-12.9-1.1-15.4-4.7-.3-.5-.9.9-1.3 3.1-.3 2.2-1.2 4.5-2 5.2-1.3 1-1.3 1.6.4 4.8 2.4 4.4 2.6 9.2.5 9.2-1.9 0-1.9.9 0 5.3.8 1.9 1.6 5.7 1.9 8.4.3 2.7.9 6.1 1.5 7.4 1.2 3.1 4.1 16.4 4.5 21 .6 6.3 3.5 13.4 7.2 17.8 3.8 4.4 3.9 7.1.3 7.1-3.8 0-7.7 3.2-9.7 7.9-2.7 6.3-3.6 26.8-2.1 42.1.7 6.6.9 13.6.4 16.5l-.8 5-2.3-10.5c-1.3-5.8-2.6-12.6-2.9-15.3-1.1-8.4-5.3-5.2-6 4.6-.2 2.8-.9 5.3-1.5 5.5-.5.2-.7.8-.4 1.4.4.6-.3.5-1.5-.1-3.2-1.7-3.9-.7-4 5.8 0 3.2-.6 7.1-1.2 8.7-.7 1.6-1.3 3.1-1.4 3.4-1.5 4.8-4 9-5.4 9-.9 0-2.3.6-3 1.2-1.1 1-1.4 1-1.8 0-.7-1.9-2-1.4-2.6 1.1-.7 2.7-4.8 6.7-14.7 14.5-4.1 3.3-9 7.5-10.7 9.3-1.8 1.9-4.9 5.1-6.9 7.1l-3.6 3.8h3.4c2.9 0 8.8-1.2 16.3-3.4 1.1-.4-.2.5-3 1.8-6 3-15.6 5.6-20.5 5.6-1.9 0-4 .4-4.7.8-1.8 1.2-3.3 5.9-3.3 10.6 0 2.3-.9 6.1-2.1 8.5-1.6 3.3-1.8 4.6-.8 5.7.9 1.2.6 1.6-1.7 2.4-2.7 1-2.9 1.4-3.2 7.1-.2 3.6.1 6.6.9 7.5.9 1.1.8 1.9-.5 3.9-.9 1.3-1.6 3-1.6 3.7 0 .8-.7 2.4-1.6 3.7-2.1 2.9-2.9 1.7-3.9-5.6-.4-2.9-1.3-5.7-2.1-6.4-.7-.6-1.1-1.6-.7-2.3.4-.6-1.6.8-4.4 3.2-3.1 2.6-5 4.9-4.7 5.7.4.9-1.7 2.5-6.5 4.8-3.9 1.8-6.8 3.7-6.3 4.1.4.4 0 .7-.8.5-2.2-.3-5 1.1-5 2.6 0 .8-.8 1.6-1.8 1.9-2.3.8-5.2 6.8-4.6 9.3.6 2.1-1.7 4.6-4.4 4.8-1 .1-4.3.7-7.6 1.3-3.2.7-6.2.9-6.7.7-1.4-.9-7.9 2.3-7.9 3.9 0 .9.4 1.6.8 1.6.5 0 1.7.7 2.8 1.5 1.7 1.5 1.1 1.5-7.1 1-7.9-.5-9.5-.4-13.3 1.5-2.4 1.2-5.4 2.2-6.5 2.2-3.6.2-4.5 1.6-4.2 6.8.2 3.7 1.1 6 3.4 9.2 1.7 2.3 3.1 4.5 3.1 4.9 0 .3-2.1.5-4.6.3-2.6-.1-5.2.3-6 .9-5.3 4.5-9.4 8.9-9.4 10.2 0 .8.9 1.9 2 2.5 2.2 1.2 2.4 1.8 1 4-.8 1.2-1.9.6-6.2-3.6-5.7-5.6-8.6-7.4-11.6-7.4-2 0-6.2-5.8-6.2-8.5 0-2.3-2.9-2.5-6.5-.4-3.1 1.9-3.6 1.9-4.1.5-.7-1.8-6.4-2.3-6.4-.5 0 2.3-6.4 8.9-8.6 8.9-1.3 0-2.6.4-2.9 1-1.1 1.7-4.3 1.1-5-.9-.8-2.5-3.1-3.3-4.4-1.7-.8 1-.4 2.3 1.7 5.2 4.1 5.5 6 7 7.4 5.6 2.1-2.1 4.8-1.4 4.8 1.1 0 1.3 1.5 3.8 3.5 5.7 1.9 1.9 3.5 3.7 3.5 4.1 0 1-10-4-15.9-7.9-3.5-2.5-6.1-5.2-7.6-8.2-3.5-6.8-6.4-9-11.5-8.3-3.1.4-4.4 1.2-5.5 3.3-1.1 2-1.1 3-.2 3.9.8.8.8 1.4 0 2.2-1.4 1.4-5.3.2-5.3-1.7 0-1-1-1.3-3.2-1.2-2.4.2-3.3-.2-3.6-1.5-.3-1.3.3-1.7 2.7-1.7 1.7 0 3.1-.4 3.1-1 0-.5-.6-.7-1.2-.5-2.4.8-31.3 3.8-35.5 3.6-2.5-.1-4.3.3-4.3.9 0 .6-.9 1.4-2.1 1.8l-2 .8 2.1 2.6c2.5 3.3 1.4 4.2-4 3.3-4.6-.8-5.1-2.4-1.6-5 2-1.5 2.2-2.1 1.1-3.2-1.8-1.7-17.6-1.8-19.3-.1-.9.9-2 .9-4.5.1-4.7-1.5-9.8-1.6-9.5-.1.4 1.9-4.4 2.2-5.8.4-1-1.4-4.7-1.8-22-2.7-14-.7-25.2-1.8-33.9-3.4-27.7-5.2-32.7-5.8-43.5-4.6-5.6.6-15.8 1.1-22.8 1.1-14.4 0-17.9-1.1-24.5-7.4-3.7-3.6-6.2-4.1-5-1.1.3.8 0 1.5-.5 1.5-.6 0-.9 1.2-.6 2.7.6 3.1-1.4 8.5-2.8 7.7-.5-.3-1.5.2-2.3 1.2-1.3 1.8-1.4 1.8-3.7-.4-2.5-2.3-4.4-3-3.3-1.2.3.5.2 1-.3 1-.6 0-.9 9.3-.7 22.7.1 12.6-.2 26.6-.7 31.3-2.1 19.9-2.1 19.4 0 21.6 2.2 2.3 4.2 9.1 2.3 8-.6-.4-1.1-.1-1.1.8 0 .8.5 1.6 1.2 1.8 1.4.5 2 4.1.8 4.8-1.9 1.2-3.4 53-1.5 53 .5 0 .4.4-.3.9-1 .6-1.2 2.2-.7 6 .9 7.4-.7 9.1-9.1 9.1-6.1 0-6.3.1-6.6 2.7-.5 4.1 1 13.2 2.9 17.8 2.3 5.7 2.7 28.4.5 38.5-2.4 11.5-2.2 48.7.3 56.1 2.2 6.1 5.1 10 7 9.2.9-.3 1.7.8 2.3 3 .9 3.2.5 4.5-4.4 14.2s-5.4 11.2-5.4 17.3c0 3.7-.7 12.8-1.5 20.2-.8 7.4-1.5 17.8-1.5 23 0 10.8 2.2 23.9 4.2 25.1.7.5 3.3 1.1 5.7 1.5 4.6.7 9.2 4.1 7.2 5.3-1.8 1.1 1.6 4.4 7.3 7 2.7 1.2 5.5 2.8 6.2 3.6 1.6 1.6 5.6 24.8 6.2 35.7.2 5.2-.3 11.4-1.7 18.6-1.2 6-2.1 14-2.1 17.8 0 3.8-.8 11.4-1.6 16.9-.8 5.5-1.6 11.3-1.8 13-.4 5-1.8 6.9-11.5 14.7-1.1 1-2.1 2.3-2.1 2.9 0 .8.5.8 1.5-.1 3.1-2.6 2.5-.1-.7 2.8-3.6 3.4-4.6 3.5-2.8.3.6-1.2.9-4.3.6-6.9-.2-2.7-.1-5.5.4-6.2 1-1.7 3-.4 3 2.1 0 2.9 1.5 2.3 4.2-1.9 3.6-5.4 5.8-12.7 5.8-19.1 0-3.9.3-5.1 1-4.1.5.8 1.1 1.2 1.3 1 .8-.8 1.7-12 1-12-1.3 0-3.2 3.7-3.3 6.3 0 1.6-.4 2.6-.9 2.3-.5-.4-1.1 0-1.4.6-.2.7-.8 1-1.2.5-.9-.7-.4-2.7 4-18.7 2.5-9 2.6-10.3 2-24-.9-21.2-2-26.4-8-37-.8-1.4-1.5-2-1.5-1.3s-.7 1-1.5.6c-2.2-.8-8.2 5.7-8.8 9.4-.3 1.7-1.3 4.8-2.3 6.9-1.6 3.4-1.8 5.9-1.5 19.9.3 8.8.5 17.9.5 20.2 0 3.7-.5 4.9-4.4 8.8-4.1 4.2-4.2 4.5-1.7 3.6 1.6-.6 3.8-1.6 5-2.2 2.6-1.3-1.9 2.7-7 6.3-2.1 1.4-3.3 3.2-3.3 4.5 0 2 .5 2.3 3.7 2.3 3.7 0 7.3 2.3 7.3 4.7 0 1.2-.5 1.5-4.1 1.7-2.6.2-11.9 7-12.5 9.1-.7 2.7-10.1 5.6-19.9 6.3-3.8.2-7.8.9-8.7 1.4-1.4.6-1.8.5-1.8-.7 0-2.1-3.6-1.9-4.5.2-.6 1.6-1 1.4-3.4-1.4-1.5-1.8-4.3-3.9-6.4-4.8-3.4-1.4-3.7-1.4-4.7.4-1.5 2.8-1.3 3.7 1.4 6.7 4.9 5.4 5.6 6.4 4.6 6.4-.7 0-.7.6 0 1.9 1.4 2.8 1.2 4.1-.5 3.5-1.9-.8-1.9 0 .2 3.9.9 1.8 1.6 3.5 1.5 4-.1.4.1.6.5.6 2-.3 3.3.2 3.3 1.4 0 .7.9 2 2 3 1.1.9 1.7 2.3 1.4 3.1-.3.9.4 2.1 1.9 3 2.3 1.6 5.2 6.4 4.3 7.3-.2.3-1-.6-1.7-1.9-.6-1.2-2.4-3.4-3.8-4.7-1.4-1.2-4-3.6-5.8-5.2-1.7-1.6-3.6-2.9-4.1-2.9-.5 0-2.6-2.5-4.6-5.5-2-3-4.1-5.5-4.6-5.5s-.7-.6-.4-1.4c.3-.8-.2-2.8-1-4.5-.9-1.6-1.6-4.6-1.6-6.6s-.7-4.9-1.5-6.5c-1.8-3.4-5.7-6-6.3-4.1-.5 1.6-3.2 1.4-3.2-.3 0-.8.5-1.8 1-2.1 1.5-.9.2-2.5-2.2-2.5-2.7 0-6.6 4.4-11 12.6-3.9 7.3-4 9-1 16.6 1 2.5.9 2.7-1.6 2.5-2.3-.2-2.7.3-3.4 3.8-1.7 8.8-1.1 26.6 1.2 35.9 4 16.1 1.2 36.1-6.6 48-3.4 5.1-2.7 6.6 7.7 16.4 8.5 8.1 13.3 15.9 14.5 23.3.7 4.3.7 4.8-.3 5.1-.4.2-.8-1.2-1-2.9-.2-1.8-1-4.5-1.8-6-.8-1.4-1.2-3-.9-3.5.3-.4.1-.8-.5-.8s-1.7-1.2-2.5-2.8c-2.9-5.4-13.4-15.2-16.3-15.2-2.1 0-1.4 6.2 1 9.7 5.5 7.9 19.9 26.3 20.7 26.3.5 0 1.1-.6 1.4-1.3 1.3-2.6-.5 31.1-1.9 36.8-4 16.2-.7 34.9 9.8 55.5 8.4 16.4 9.9 21.8 9.9 35-.1 12.6-2.8 24.6-7 30.5-5.3 7.5-9.5 4.3-4.8-3.7 5.7-9.9 7.2-26.1 3.5-36.9-2.3-6.6-3.8-9.6-13.2-26.3-3.4-5.9-6.4-13-7.7-18-1.2-4.4-3.2-10.1-4.5-12.6-4.5-9-9.4-27.8-9.6-36.8-.1-3.2.9-9.3 2.1-13.7 4.5-16.1 4.6-16.9 2.4-23.6-1.9-6.1-3.5-7.6-4.4-4.2-.8 2.8-3.4 6.3-4.7 6.3-.7 0-1.4-2.6-1.9-6.9-.8-8.1-3.5-13.7-6.2-12.6-3.6 1.6-5.3 1-7.4-2.6-2.2-3.9-2.2-3.7 1.8-8.2 2.9-3.3 4.4-8 4.4-13.8 0-5 .3-6 1.5-5.5.8.3 2.1.9 2.9 1.2 1.3.5 2.6-1.8 3.2-5.6.1-.8.4-3.5.7-6 .4-2.5.9-8 1.2-12.4.3-4.3 1-8.7 1.6-9.8.9-1.6.7-2.3-1-3.5-6.6-4.6-18.1-20-18.1-24.1 0-3.4-.9-3.9-4-2-2.7 1.7-3.7.2-1.5-2.2 2.2-2.4 1.4-4.7-2.2-6.1-4-1.5-8.6 0-9.3 3.1-.3 1.4-1.5 2.9-2.5 3.5-1.1.6-3.9 2.3-6.2 3.8-2.4 1.5-5.4 2.7-6.8 2.7-2.3 0-2.5-.3-2-2.3.9-2.8 8.3-10.5 11-11.3 6-1.9 16.5-6.8 15.8-7.5-.4-.4-4.2-1.1-8.3-1.6l-7.5-.8 3.8-2.3c2-1.3 3.7-2.9 3.7-3.5 0-1.2-7.6-5.7-9.6-5.7-3.2 0-6.1 10.8-3.4 12.5.6.4-.2 1.9-1.9 3.6-2 2-3.3 4.7-4.1 8.4-.9 4.1-1.6 5.5-2.9 5.5-2 0-5.5-2.4-5.7-3.9-.1-.6-.2-1.6-.3-2.1 0-.6-.9-1-2-1-2.4 0-5.1-5.5-5.1-10.4 0-4.4-1.7-8.3-5.2-11.8-1.5-1.4-2.4-2.9-2.1-3.2.4-.3.2-.6-.4-.6-1.7 0-2.3 1.3-1.2 2.6 1.4 1.7.2 7.4-1.5 7.4-1 0-1.3-1.7-1.2-6.1.1-5.5-.2-6.3-2.7-8.5-2.7-2.3-5.8-3.2-5.6-1.6.4 2.4-.2 3.4-1.4 2.4-2.6-2.2-7-.7-8.9 2.9-1 1.8-1.8 4.2-1.8 5.1 0 1-.6 1.8-1.3 1.8-.7 0-3.3 2.8-5.8 6.3-5.7 7.8-30.5 26.9-42.1 32.5-7.7 3.7-9.5 5.2-6 5.2 1.1 0 2.7.9 3.8 2.1 1.9 2.1 1.9 2.1-.6 1.8-2-.3-2.4 0-2.2 1.4.3 1.7.1 1.7-2.7.2-1.7-.8-5.7-1.8-9-2.2l-6-.6-6.3 6.6c-6.8 7.1-10.1 9-14.3 7.9-2.1-.6-3.3-2.4-6.2-8.7-2-4.4-4.1-8.5-4.8-9-.7-.7-.9-4.3-.5-11.3l.5-10.2 4.3-3.9c2.3-2.1 4.2-4.6 4.2-5.5 0-.9.3-1.6.8-1.6.4 0 2.2-.9 4.1-2.1 3.2-1.9 3.3-2.1 1.6-4-1-1-1.4-1.9-.9-1.9.5-.1-.4-.7-2.1-1.5l-3-1.3 2.6-.1c1.5-.1 3.2-.8 4-1.7.7-.8 2.1-1.3 3.1-1.1 2 .6 2.2-.1.8-2.3-.6-.9-1-1.1-1-.3 0 .7-.7 1-1.5.8-4.8-1.5-4.8-1.6-3.7-2.7 1.2-1.2 0-2.9-2.9-4-.9-.4-1.9-1.6-2.2-2.7-.4-1.8-.2-1.9 1.3-1.1 1.1.6 2.2 1.5 2.5 2 .7 1.2 5.2 1.3 5.9.2.3-.5-.2-5.7-1.1-11.6-2-13.3-1.5-15.3 7-24.9 5.9-6.7 8.2-7.8 8.2-4.1.1 2-2 8.7-3.6 11.6-.7 1.5-.5 1.8 1.2 1.8 1.1 0 1.7-.5 1.4-1-.3-.6-.2-1 .4-1 .5 0 1.2.4 1.5.8.3.5 3.3 1 6.6 1.1 6.6.2 7.8-.8 6.6-5.4-.4-1.6-1.3-2.5-2.7-2.5-2.9 0-5.9-1.8-5.9-3.5 0-.8-1-1.9-2.1-2.6-1.6-.8-1.8-1.3-.9-1.9.8-.5.9-1.6.4-3.1-1-3-1.5-8.5-1.7-17.3-.2-5.6.1-7.1 1.6-8 2.4-1.5 3.8.7 3.5 5.4-.2 2.5.1 3.5 1.2 3.5.8 0 2.1.4 2.8.8.7.5 1.4.2 1.8-.7.8-2 2.4-2.1 2.4-.1 0 .8.7 1.5 1.5 1.5s1.5.9 1.5 2 .5 2 1.1 2c.7 0 .8-1.1.4-3.1-.6-2.4-.4-3 .6-2.7.8.3 1.6 1.5 1.8 2.9.6 4.5 5.9 5.5 8 1.5 1-1.7 3.4-3 8.9-4.8 7.7-2.4 9.8-4.2 6.4-5.2-1.1-.4-4.8-3.3-8.2-6.5-6.2-5.8-6.3-6-5.7-10.3.3-2.3.4-3.7.1-3.1-.4 1-1.2.9-3.4-.2-1.6-.8-3.6-1.5-4.6-1.5-1.1 0-1.4-.5-1-1.6.3-.9.6-2 .6-2.5s1.1-.9 2.5-.9c3.3 0 8.4 5 11.6 11.4 2.3 4.8 2.7 5.1 13.5 9.7 11.7 4.9 18.9 6.9 25.4 6.9 4.5 0 5.4-1.9 2-4.3-1.9-1.3-1.9-1.3 0-2.7 1.1-.8 2-2.2 2-3 0-.9.5-2.1 1.1-2.7 1.8-1.8-.7-5-4.3-5.8-7.5-1.6-16.8-8.4-16.8-12.2 0-1.1 1.1-.9 4.4 1.1 5 2.9 10.3 3.3 14.5 1.1 2.2-1.1 3.2-2.6 4-6.2.7-2.6 1.1-6.2 1.1-7.8-.1-4.9.6-7.9 1.9-8.3.6-.2 1 .1.9.8-.2.7.5 1.7 1.4 2.3 1.3.9 2.1.7 3.7-.7 1.1-1 1.8-2.3 1.5-2.7-.3-.5-.1-.9.4-.9s.9-.6.9-1.3c.1-.6.4-3.4.7-6 .3-3.6.1-4.9-.9-5.3-1.2-.5-1.1-1.4.6-5.6 1-2.7 1.7-5.3 1.4-5.7-.2-.5.5-1.7 1.6-2.7 1.3-1.2 1.8-2.6 1.5-4.3-1.3-6.9-1.7-21.3-.6-22.6.7-.8.9-1.8.6-2.4-.3-.5-.1-2.2.5-3.8 1.1-2.8 1.5-4.3 2.5-9.7.2-1.6.6-3.2.8-3.5.2-.3.7-2.8 1-5.5.4-2.7 1-5.4 1.3-5.8.8-1.5-.7-7.9-1.8-7.3-1.5 1-1.1-1.7 1.6-9.5 3-8.7 2.9-8.4.9-7.6-.8.3-2.7.3-4 0-2-.5-2.3-1.1-1.8-2.8.4-1.1 1.1-2.3 1.5-2.4.5-.2.9-1.2.9-2.3 0-1 .4-1.9.8-1.9.9 0 2.2-3.3 6.3-15.3 1.7-4.9 3.9-10.3 5-12.1 1-1.8 1.9-4.3 1.9-5.7-.1-6.1-.2-6.9-1.1-6.9-.5 0-.7-1-.4-2.3 1.2-5.7 1.3-14.6 0-15.1-.8-.3-1.1.2-.8 1.4 1.2 4.4-12.8 22.8-18.9 24.9-6.2 2.2-4.1-4.2 4.5-13.6 9.1-10 17.7-35.6 17.7-53.2 0-2.5.7-7.1 1.5-10.1s1.2-5.6 1-5.8c-.2-.3.7-2.6 2.1-5.3 1.3-2.7 2.1-4.9 1.7-4.9-.3 0 .7-1.3 2.5-2.8 1.7-1.5 3-3.4 2.8-4.2-.8-4.1-2-7.7-3.2-9.4-1-1.4-1-2.3-.2-3.3.6-.8.7-1.3.1-1.3s-.9-1.9-.8-4.3c.2-2.3-.1-4.9-.6-5.8-.4-.9-.6-1.9-.2-2.2.3-.4.6-6.1.6-12.9 0-11.2-.2-12.8-2.5-17.8-1.5-3-4.5-7.3-6.7-9.4l-4.2-3.9 2.1-2.2c1.2-1.3 2.3-3.1 2.5-4.1.2-1.1.4-1.9.5-1.9.2 0 .4-2.2.6-4.8.2-2.7.8-5.5 1.5-6.3.6-.8.8-1.4.4-1.4s-.3-.6.3-1.3c.5-.6 1.3-4.8 1.7-9.2.4-4.4.8-8.2 1-8.5.2-.3.6-2.5.9-5 .4-2.5 1.1-6.3 1.7-8.5 1.2-4.9 1.7-7.7 3.5-21 .3-2.2.8-5.1 1-6.5.3-1.4.9-6.6 1.3-11.5.5-5 1.5-14.8 2.2-21.8.8-8.1 1-13.1.4-13.5-.6-.4-1.1-1.8-1.3-3.2-.1-1.4-.4-3.4-.6-4.5-.2-1.1-.4-2.9-.5-3.9-.2-2.8-1.1-1.4-2.2 3.1-1.4 5.9-6.6 36.5-8.4 49.2-3.1 21.1-7 30.4-19.5 45.6-4.5 5.5-8.8 10.6-9.6 11.4-4.6 4.9-.2-6.1 7.6-18.9 2.2-3.6 4.2-7.3 4.6-8.3.3-.9 1-1.7 1.3-1.7.4 0 .8-.6.8-1.3.1-.6.6-2.6 1.1-4.4.6-1.7.7-3.4.4-3.8-.4-.4-.8-1.1-.8-1.6-.1-.5-.2-1.3-.3-1.8 0-.5-1.2-2.3-2.6-4-4.5-5.3-11.7-21-11.9-25.7 0-2.4-.4-3.7-.8-3.1-.4.7-.8-.8-.8-3.3 0-2.6-.5-5.1-1.2-5.8-.9-.9-.9-1.2.1-1.2.8 0 1.1-.6.7-1.6-.5-1.3-.1-1.5 1.8-1.2 1.5.3 2.7 0 3-.8.3-.8.1-1.4-.4-1.4-1.3 0 1.1-5.3 2.8-6.3 1.1-.7 1.1-1.2.1-2.4-1.1-1.2-1-1.7.4-2.4 1.3-.8 1.4-1.5.7-3.4s-.6-2.5.5-2.5c.7 0 1.7-.6 2.1-1.3.4-.6.4-.9 0-.5-.5.4-1.8-.5-3.1-2-1.7-2-2-3-1.3-4 .6-.6.6-1.2.1-1.2-.4 0-.8-2.1-.8-4.8.1-5.1-1.7-11.7-2.8-10.6-.4.4-.7-1.5-.7-4.3 0-6.1-1.7-7.3-5.5-3.7-3.6 3.4-4.1 2.5-1-1.9 1.3-2.1 2.1-3.7 1.7-3.7-.4 0-.1-.4.6-.9.8-.4 1.7-4.3 2.2-9.4.5-4.8 1.2-9.2 1.6-9.8.3-.6.6-7.5.5-15.4-.1-17 1.2-30.9 5.3-52.7.9-4.8 2-11.6 2.5-15 .5-3.5 2.1-12.6 3.6-20.3 5.2-27.9 7-52.3 4.5-61.5-.5-1.9-1.1-9.6-1.3-17-.4-12.1-1.8-19-3.7-19-.3 0-.4-1.8-.4-4 .2-3.6-3.5-14.6-6.7-20.4-.6-1.1-1.3-3.1-1.4-4.5-.9-7.2-1.9-11.7-2.7-12.8-2.4-3-2.8-40.3-.5-43.1.9-1.3.9-1.4 0-.8-.9.5-1.2-.1-1.1-1.9.2-2.1.4-2.3 1.3-1.1.6.8 1.2 5 1.3 9.4.1 5.2.8 9.7 2.2 13.4 1.7 4.7 1.9 6 .9 8.2-1.1 2.4-1 2.8 1 4.2 1.5 1.1 2.1 2.3 1.8 3.5-.3 1.1-.1 2.1.3 2.4 1.3.8 4-5.4 5.5-12.5 2.4-11.7 4.5-19 6.1-22.3 1.9-3.6 6.4-9.3 6.4-8 0 .4.9-.7 2-2.5 2.3-3.8 2.5-4.6.7-3.9-1 .4-1.3-1.7-1.4-8.8-.1-5.2-.3-9.8-.6-10.2-.5-.8-.7-4.5-.9-14.6-.1-1.5-.4-2.7-.7-2.7-.3 0-.6-1.4-.6-3 0-1.7.3-3 .6-3s.6-1.7.6-3.8c.1-3.9.5-6.9 2.1-14 .6-2.3.7-4.4.3-4.6-.4-.3-.6-2.7-.5-5.5 0-2.8-.2-5.1-.6-5.1-.4 0-2 1-3.5 2.2l-2.8 2.1 1.2-2.1c1.8-3.4.4-2.6-3.9 2l-3.9 4.3 1.4-5c2-6.4 1.6-7-1.9-4-1.6 1.4-3.5 2.5-4.1 2.5-.7 0-2.3.9-3.7 1.9-3.5 2.8-6.3 3.1-6.3.6-.1-1.1-.6-1.9-1.2-1.8-1.4.3-4.7-9.2-3.9-11.2.3-.8.1-1.7-.5-2.1-.5-.3-.7-1.5-.3-2.6.4-1.3.2-1.8-.4-1.4-.6.4-.8-.2-.5-1.4.3-1.1-.1-2.8-.8-3.7-1-1.2-1-1.4-.1-.9 1.6 1 1.5 0-.4-2.9-.9-1.3-1.3-2.9-.9-3.6 1.1-1.8.6-12-.6-13.5-.9-1.1-.8-1.4.2-1.4.9 0 1-.3.3-.8-.6-.4-1.4-2-1.8-3.7-.4-1.6-1.1-3.2-1.5-3.5-.4-.3-2.2-2.8-4.1-5.7-1.8-2.9-3.6-5-4.1-4.8-.4.3-.5-.5-.1-1.7.3-1.4.1-1.9-.6-1.4-.6.3-1.3-.3-1.7-1.4-.3-1.1-1.3-2-2.1-2s-1.3-.4-.9-1c.3-.5-1.3-1.8-3.7-3-4.2-2-6.2-2.6-4.3-1.2.6.4 1.6 2 2.3 3.5.8 2 1.7 2.7 2.8 2.3.8-.3 1.2-.2.9.3-.3.5 2.1 4.4 5.2 8.6 3.1 4.3 5.8 8.3 6 8.9.1.6.9 3.1 1.8 5.5 1.1 3.1 1.7 9 2 19.5.2 8.3.9 17.8 1.4 21.1 2.3 13 .5 16.8-2.2 4.8-2.2-9.5-2.7-13.8-3.6-30.6-.8-14.3-1-14.9-4.2-20.3-11.3-18.6-36.4-36-59.5-41.1-4-.9-7.1-1.9-6.9-2.4 1.2-1.8-10.8-4-22.3-4-13.6 0-20.4 1.1-23.3 3.7-1.3 1.2-3.7 1.9-6.1 2h-4l2.4-1.7c3.3-2.6 15.9-9.5 18.8-10.4 3.9-1.2 9.8-5.3 11-7.5.9-1.7.7-2.2-1.6-3-1.4-.6-3.4-.9-4.3-.8-2.1.4-1.6-2.4 1.2-6.9 1.7-2.5 2.8-3.3 4.5-3 1.2.2 2.2-.1 2.2-.7s.4-.6.9.2c.6 1 1.4.7 3.5-1.5 1.5-1.6 3.3-4 4-5.4 1.5-3 6.2-2.9 8.8.2 2.2 2.5.9 5-3.9 7.6-3.7 2-4.2 3.3-1.3 3.3 2.2 0 10-4.5 10-5.8 0-.4 1.7-2.6 3.9-5 3.1-3.4 4.5-4.2 7.3-4.2 1.9 0 3.8.4 4.4 1 1.8 1.8 8.3-.8 10-4.1 1.5-3 1.7-3.1 6.2-2.4 2.6.4 8.7 2 13.6 3.7 7.8 2.5 9.8 2.8 15.5 2.2 3.6-.3 8-1.2 9.8-1.9 1.7-.7 3.4-1 3.8-.7 1.6 1.6 4.3.4 8.5-3.8 9.8-9.9 15.9-13.9 23.5-15.5 2-.4 3.9-2 5.7-4.6 3.2-4.6 4.1-4.8 5.6-1.4 1.3 2.9 3.7 3.2 8.9 1 5-2.1 16.2-1.9 26.2.5 9.2 2.2 11.1 3.3 11.1 6.1 0 1.1.4 1.9.8 1.9.5 0 1.8 1.7 3 3.8 1.1 2.1 3.9 5.5 6.1 7.5 2.3 2.1 4.1 4.4 4.1 5.1 0 2.2-6 .6-9.1-2.5-3.4-3.3-4.4-3.5-8.5-1.5-3.2 1.7-16.7 2.3-22.6 1.1-6.9-1.4-5-4.6 3.7-6 9.4-1.6 13.5-5.4 7.9-7.5-4.4-1.7-10.1-2.8-11.2-2.1-.5.3-.9 1.7-.8 3.1.1 1.8-.6 2.7-2.6 3.4-2.1.7-3.7.4-8.3-1.9-3.2-1.5-6-3.6-6.2-4.6-.7-2.5-2.3-2.4-2.3 0 0 1.1-.9 2.6-2.1 3.5-2.7 1.9-2.1 4.8 1.3 5.7 3.2.8 8.8 4.6 8.8 6 0 .5-2.1 1.9-4.6 3-2.5 1.2-4.8 2.8-5.1 3.6-.7 1.8-1.6 1.7-4.3-.7-2.8-2.4-5.7-1.2-7.3 3.1-1.4 3.5-2.3 3.7-3.1.6-1.2-4.6-.5-8.4 2.4-13 1.7-2.6 3-5.2 3-5.7 0-1-.3-1.1-3.3-1.4-2.7-.2-9.3 3.9-12.7 8-2 2.4-5.3 4.9-7.7 5.9-2.4.9-4.3 2.3-4.3 3.1 0 .8-.4 1.4-1 1.4-.5 0-1.4.9-2 2-.6 1.1-.7 2-.3 1.9 2.2-.4 3.2.2 2.7 1.6-.4.8-1.4 1.5-2.4 1.5-1.1 0-2.1.4-2.5 1-1 1.5 1.8 5 4.1 5 1.1 0 2.9.9 3.9 2 2.4 2.7 7.5 2.7 7.5.1 0-1.1-1.1-2.8-2.5-3.9-3.2-2.5-3.1-3.5.1-6.6 3.5-3.2 5.2-2.4 6.5 3 .8 2.9 2.1 5.1 3.9 6.4 4 2.8 5.4 2.5 6.9-1.5 1-3 1.9-3.7 5.6-4.6 2.4-.6 5.1-2 6.1-3 1.4-1.6 2.6-1.8 7-1.3 3.6.5 7.3.1 11.8-1.1 4.4-1.2 7.9-1.6 10.8-1.1 10.9 1.8 11.7 1.8 14-.4 2.8-2.6 5.3-2.5 7.9.1l2.1 2.1-2.1 1.4c-1.2.9-2.1 1.9-2.1 2.4 0 1.6 6.1 3 15.1 3.5 8.6.4 10.2.9 14.5 5.1 3.3 3.1 5.9 4 10.4 3.6.8-.1 3.6.8 6.3 1.9 5.4 2.2 6.9 1.8 11.1-3.1 1.8-2.1 2.5-4.1 2.4-6.6-.2-4.3-1-4.8-6.9-4.5-2.7.1-5.9-.4-7.6-1.3-5.1-2.7-19.3-19-21.1-24.5-1.8-5-1.6-5.3 2.6-3.5 4.5 1.9 6.3 2.4 12.4 3.3 3.5.5 5.3 1.5 7.3 4 1.5 1.7 3 3 3.2 2.7.3-.3-.2-1.2-1.1-2.1-1.2-1.2-1.3-2.1-.6-3.5.5-1 .7-7.7.4-16.3-.5-14.3-.5-14.5 1.7-15.2 4.1-1.3 5.1 3.3 1.9 9.5-1.4 2.7-1.8 4.9-1.3 7.2 2 10.8 11.8 20.6 19.1 19.2 2.5-.5 3.6.1 7.5 4 2.6 2.5 5.4 4.6 6.2 4.6.9 0 2.7-1.2 4-2.6 2.2-2.4 2.4-2.4 3.4-.7s1.2 1.7 3.1-.6c2.3-2.7 2.6-6.1.6-6.1-2.4 0-4.6 1.2-4 2.1.3.5-.1.9-.9.9s-1.8-.7-2.1-1.6c-1.1-2.8-.6-9.1.7-10.3 1.6-1.3 2.7-.5 2.7 2 0 1.6.3 1.7 2.5.7 1.9-.8 3.1-.8 5.1 0 1.9.9 3 .9 4.6.1 2.3-1.2 3-.7 8 6.3 1.3 1.8 1.9 2.1 2.9 1 .7-.6 2.4-1.2 3.9-1.2 3.5-.1 6.3-4.2 5.5-8-.7-3-.6-3 3.7-3 7.6.1 9.7-.4 8.6-1.7-1.3-1.6.7-6.9 2.8-7.7.8-.3 1.4-1.5 1.4-2.6 0-1.4.7-2 2.3-2 2.9-.1 6.2-2.6 6.2-4.8 0-1.1.9-1.8 2.8-2 3.1-.4 3.3-.9 1-3.4-1.5-1.7-1.5-1.8 1.1-1.8 1.5 0 3.6.4 4.6 1zm57.8 8.2c4.1 3.2 5.2 4.8 3.2 4.8-.6 0-1.3-.7-1.6-1.5-.4-.8-1-1.5-1.4-1.5-2.1 0-8-3.2-7.5-4 1.1-1.7 3-1.1 7.3 2.2zm-150.7 1c4.4 2.5 4.8 3.4 1.8 4.3-2.4.8-7.2-2.2-7.7-4.9-.5-2.2 1.3-2 5.9.6zm65.4 7.9c1 1.5-.1 2.2-2.4 1.4-1.2-.3-1.9-1.1-1.6-1.6.8-1.2 3.2-1.1 4 .2zm-57.5 4.5c0 1.8-1.4 1.8-2.9 0-.9-1.1-.9-1.5.1-1.9 1.7-.6 2.8.1 2.8 1.9zm12.5 2.5c1 1.5-.1 2.2-2.4 1.4-1.2-.3-1.9-1.1-1.6-1.6.8-1.2 3.2-1.1 4 .2zm18.5.9c0 .5-.2 1-.4 1-.3 0-.8-.5-1.1-1-.3-.6-.1-1 .4-1 .6 0 1.1.4 1.1 1zm108.6 15.1c1.9 2.2 1.9 2.2-.3 1-1.3-.6-2.3-1.6-2.3-2.1 0-1.5.5-1.2 2.6 1.1zm13.4 3.9c0 .5-.4 1-.9 1-.6 0-1.3-.5-1.6-1-.3-.6.1-1 .9-1 .9 0 1.6.4 1.6 1zm83.8 17.8c.3.9-.2 1.3-1.4 1-.9-.1-1.9-.9-2.2-1.6-.3-.9.2-1.3 1.4-1 .9.1 1.9.9 2.2 1.6zm30 3.4c2.1 2.1 1.3 3.8-1.7 3.8-3.3 0-4.6-1.3-3.7-3.5.7-1.8 3.7-2 5.4-.3zm-541.9 2.4c.2.2.2.5 0 .7-.2.2-4 3.1-8.4 6.4-4.5 3.4-9.1 7.9-10.5 10.2-2.3 3.9-4 5.2-4 3.2 0-1.9 8.3-13.1 13-17.5 4-3.7 5.5-4.6 7.3-4 1.2.3 2.4.8 2.6 1zM1062 866.4c0 .3-.4.8-1 1.1-.5.3-1 .1-1-.4 0-.6.5-1.1 1-1.1.6 0 1 .2 1 .4zM887.7 939c.3 1.1.9 2 1.3 2 .9 0 .7 2.6-.3 3.6-.6.6-3.7-5.4-3.7-7.1 0-1.5 2.3-.2 2.7 1.5zm936.8 41.6c5.3 2.8 12.3 9 11.3 9.9-1 1.1-18.8-10.3-18.8-12 0-1.1 2.9-.3 7.5 2.1zm87 105.3c-.3.6-1.1 1.1-1.7 1.1-.6 0-.6-.6.2-1.5 1.4-1.7 2.6-1.3 1.5.4zm-209.6 116.5c.9 1.1.8 1.5-.5 2-1.8.7-3.7-1.1-2.8-2.6.8-1.2 2-1 3.3.6zm-237.9 92.4c0 .5-1.2 1.9-2.6 3.3-1.5 1.3-2.4 1.7-2 .9.3-.8.9-2.3 1.2-3.3.6-1.7 3.4-2.4 3.4-.9zm-28.6 5.3c-.8 1.4-2.4 1-2.4-.6 0-.9.6-1.2 1.5-.9.8.4 1.2 1 .9 1.5zm128.8.9c-.5 3-2 5-3.8 5-2.1 0-2.3-1.3-.8-4.8 1.7-4.1 5.1-4.2 4.6-.2zm-58.2 2.3c0 2-2.5-.1-2.8-2.4-.2-2.3-.2-2.3 1.3-.5.8 1.1 1.5 2.4 1.5 2.9zm-28.5-2.3c-.3.5-1 1-1.6 1-.5 0-.9-.5-.9-1 0-.6.7-1 1.6-1 .8 0 1.2.4.9 1zm165.1 5.3c-.6 2.5-3.1 4.2-4.7 3.1-1.4-.8-1.1-2.6 1.2-6.4 2.1-3.4 2.2-3.4 3.2-1.3.5 1.2.7 3.3.3 4.6zm-67.6-4c0 .8-.3 1.7-.7 2.1-.4.4-.8 1.5-.8 2.3 0 .9-.5 1.8-1.2 2-.8.3-1.1-.7-.8-3.4.4-4.7.2-4.3 2-4.3.8 0 1.5.6 1.5 1.3zm-155.2 5c1 .8 1 1.3-.1 2.6-1.3 1.6-3.1 5.2-4.1 8.4-.9 2.9-4.8 1.8-5.7-1.7-.5-1.7-.5-3.5 0-4 .5-.6 1.1-2.3 1.4-3.7.5-2.1 1.2-2.6 3.9-2.6 1.8 0 3.9.4 4.6 1zm9 2c.2 1-.3 1.7-1.2 1.7-1.8 0-2.9-1.6-2.1-3.1.9-1.4 2.9-.6 3.3 1.4zm29.2 2.1c0 1.5-3.7 3.2-4.7 2.2-.9-.8 1.7-3.6 3.3-3.6.8 0 1.4.6 1.4 1.4zm-50 1c0 .3-.4.8-1 1.1-.5.3-1 .1-1-.4 0-.6.5-1.1 1-1.1.6 0 1 .2 1 .4zm20.8 2.9c.2 1.1-.3 1.7-1.7 1.7-2.3 0-3.5-1.5-2.6-3.1 1-1.5 3.9-.6 4.3 1.4zm-23.8.8c.7 1.1.9 2.7.6 3.5-.8 2.1-5 1.4-5.4-.9-.9-4.5 2.8-6.5 4.8-2.6zm-83.2.7c.3.9-.3 1.3-1.9 1-1.2-.1-2.4-.9-2.7-1.6-.3-.9.3-1.3 1.9-1 1.2.1 2.4.9 2.7 1.6zm256.2-1.4c0 .3-.4.8-1 1.1-.5.3-1 .1-1-.4 0-.6.5-1.1 1-1.1.6 0 1 .2 1 .4zm-181.8 6.8c-.6.6-1.9.7-2.9.3-1.7-.7-1.7-.8.2-1.5 2.4-.9 4.1-.2 2.7 1.2zm53 .5c2.6 2.3 2.2 3.3-1.1 3.3-3.1 0-5.7-2.2-4.6-4 .9-1.5 3.6-1.2 5.7.7zm70.4-.6c.8 1.4-1.8 3.1-3 1.9-.9-.9 0-3 1.4-3 .5 0 1.2.5 1.6 1.1zm-197.2 3.1c1.8 2.5 2.1 6.4.7 7.2-3 1.9-7-3.9-5.2-7.3 1.5-2.7 2.6-2.7 4.5.1zm84.8-.7c0 .5-.5 1.1-1.1 1.3-.6.2-1.1-.4-1.1-1.3s.5-1.5 1.1-1.3c.6.2 1.1.8 1.1 1.3zm17.2.1c.8 2.1-2.3 6.6-4.1 6-.8-.4-1.9-.6-2.4-.6-1.3 0-1.1-4.4.3-5.8 1.7-1.7 5.5-1.5 6.2.4zm46.9 4.4c-.3 4.4 0 5.3 1.6 5.7 2.1.5 3.5 2.9 2.6 4.4-1 1.5-7.4 2.2-9 .9-2.2-1.8-.9-11.8 1.9-14.7 1.1-1.2 2.3-2 2.6-1.8.3.2.4 2.7.3 5.5zm19.7-5c0 .5-.4 1-1 1-.5 0-1-.5-1-1 0-.6.5-1 1-1 .6 0 1 .4 1 1zm-91 3.5c0 .8-.7 1.5-1.5 1.5-1.6 0-2-1.2-.8-2.3 1.1-1.2 2.3-.8 2.3.8zm97 3.5c0 .5-.5 1-1.1 1-.5 0-.7-.5-.4-1 .3-.6.8-1 1.1-1 .2 0 .4.4.4 1zm-142 2.1c0 .6-.4.7-1 .4-.5-.3-1-1.1-1-1.6 0-.6.5-.7 1-.4.6.3 1 1.1 1 1.6zm21.4 1c-.8 1.4-3.4 1.1-3.4-.4 0-.8.3-1.7.7-2 .9-.9 3.4 1.3 2.7 2.4zm67.6-1.1c0 .5-.5 1-1.1 1-.5 0-.7-.5-.4-1 .3-.6.8-1 1.1-1 .2 0 .4.4.4 1zm-19.2 5.3c.2 1.2-.3 1.7-1.7 1.7-1.2 0-2.1-.6-2.1-1.3 0-3.1 3.2-3.4 3.8-.4zm-109.4 4c-.3.9-1 1.7-1.5 1.7-1.4 0-2.2-2.7-1.5-4.7.6-1.5.8-1.5 2.2-.2.8.9 1.2 2.3.8 3.2zm68.6-3.3c0 .5-.5 1-1.1 1-.5 0-.7-.5-.4-1 .3-.6.8-1 1.1-1 .2 0 .4.4.4 1zm32.5 1c0 2.2-3.9 1.9-4.3-.3-.3-1.5.1-1.8 2-1.5 1.2.2 2.3 1 2.3 1.8zm-5.5 3.6c0 .8-.9 1.4-2 1.4-1.9 0-2.7-1.9-1.4-3.3 1-.9 3.4.4 3.4 1.9zm64-.6c0 .5-.7 1-1.6 1-.8 0-1.2-.5-.9-1 .3-.6 1-1 1.6-1 .5 0 .9.4.9 1zm-164 1.4c0 2-2.6 4-3.5 2.6-1-1.6.2-4 2-4 .8 0 1.5.6 1.5 1.4zm15.5 2.1c0 1-.6 2-1.2 2.2-.8.3-1.3-.5-1.3-2.2 0-1.7.5-2.5 1.3-2.3.6.3 1.2 1.3 1.2 2.3zm40.5-2.1c0 1.1-1.9 1.5-2.5.6-.3-.5.1-1 .9-1 .9 0 1.6.2 1.6.4zm-50.4 5.2c-.5 1.3-1 1.4-1.8.6-.6-.6-.8-1.8-.4-2.8.5-1.3 1-1.4 1.8-.6.6.6.8 1.8.4 2.8zm-16.6-.6c0 .5-.5 1-1.1 1-.5 0-.7-.5-.4-1 .3-.6.8-1 1.1-1 .2 0 .4.4.4 1zm36.3 5.3c-.3.5-1 .4-1.5-.1-.6-.6-.7-1.6-.3-2.2.6-.9.9-.9 1.6.1.4.7.5 1.7.2 2.2zm11.7 3.8c0 .5-.7.9-1.5.9-1.5 0-2-1.2-.9-2.3.8-.8 2.4.1 2.4 1.4zm-47.2.1c-.6 1.8-2.8 2.1-2.8.4 0-.9.7-1.6 1.6-1.6.9 0 1.4.5 1.2 1.2zM1288 1372c0 .5-.5 1-1.1 1-.5 0-.7-.5-.4-1 .3-.6.8-1 1.1-1 .2 0 .4.4.4 1zm4 23c0 1.3-.7 2-2 2-2.3 0-3.5-2.2-2.6-4.5.8-2.2 4.6-.1 4.6 2.5zm-297.1 271.6c-1.3 1.4-5.1 4.4-8.4 6.6l-6 4.1 4.5-4.8c4.4-4.6 11.1-9.6 11.9-8.9.3.2-.6 1.6-2 3zm-33.9 29.9c-.7.8-1.7 1.5-2.2 1.5-.6 0-.5-.7.2-1.5s1.7-1.5 2.2-1.5c.6 0 .5.7-.2 1.5zm-7 7c0 .2-1.3 1.9-2.9 3.7-1.6 1.9-3.1 4.7-3.3 6.3-.4 3.4-1.7 4-4.3 2.1-1.8-1.3-1.8-1.7-.5-4 1.5-2.9 11-9.9 11-8.1zm9 18.5c0 1.1-.2 2-.4 2s-.6-.9-.9-2c-.3-1.1-.1-2 .4-2s.9.9.9 2zm-34 36.1c0 .5-2.8 1-6.2 1.1-3.5 0-7.4.2-8.8.3-1.4.1-4.3-.3-6.4-.9-3.4-1-2.3-1.1 8.8-1.3 7.2-.1 12.6.2 12.6.8zm24 .9c0 .5-.5 1-1.1 1-.5 0-.7-.5-.4-1 .3-.6.8-1 1.1-1 .2 0 .4.4.4 1zm-97.5 10.4c-1.7 2.2-2.2 3.7-1.5 4.1 1.8 1.1.2 2.3-5.3 4-2.8 1-6.2 2.4-7.5 3.2-2.4 1.5-4.2 1-4.2-1.2 0-1.7 4-3.9 8.7-5 1.8-.3 4.2-1.9 5.4-3.3 1.7-2.2 5.3-5 6.7-5.2.2 0-.9 1.5-2.3 3.4zm53.5 8.6c0 .5-.7 1-1.6 1-.8 0-1.2-.5-.9-1 .3-.6 1-1 1.6-1 .5 0 .9.4.9 1zm343.8 5.7c-.5 2.5-2.8 2.8-2.8.4 0-1.2.6-2.1 1.6-2.1.9 0 1.4.7 1.2 1.7zm-15.8 13.8c-.7.9-1.5 1.3-1.7 1.1-.7-.7.7-2.6 1.9-2.6.6 0 .6.6-.2 1.5zm-80.5 9.5c0 2-6.4 1.5-8.5-.6-1.3-1.3-.9-1.5 3.5-1.2 3.6.2 5 .7 5 1.8zm-123.5.5c-1.3 1.6-4 2-4 .7 0-1.4 1.2-2.2 3.3-2.2 1.6 0 1.7.3.7 1.5zm232.1 11.6c3.3 3.5 4.4 8.2 3.5 14.5-1.2 9-8 17.5-17.4 21.6-5.6 2.5-18.8 3.5-26.1 1.9-4.5-.9-6.2-.9-10.8.6-4.5 1.4-6.1 1.5-9.8.5-2.4-.6-5.2-.9-6.2-.6-1.4.5-1.5.4-.4-.4 1.2-.8 1-1.6-1.3-4.2-3.4-4.1-2.6-5 1.4-1.6 1.8 1.4 4.4 2.9 5.8 3.2 1.5.3 3.3.7 4 1 2.7.8.9-1.7-2.5-3.5-4.6-2.4-4.3-2.5 2.7-.6 9.3 2.5 12 2.1 16.5-2.5 3.1-3.2 3.7-4.3 2.6-4.9-1.7-1.1-.5-3.2 1.4-2.5 1.6.6 2.9-4.5 2.2-8.6-.3-1.4-.1-4.3.3-6.5l.7-4 1.2 3c3.1 7.4.7 15.7-7 24-2.1 2.3-3.9 4.5-3.9 4.7 0 .3 2.5.9 5.5 1.3 6 .7 19.4-1 23.5-3 4.6-2.3 9.3-8.7 11.1-14.8.9-3.2-.9-7.9-3.7-9.5-2.2-1.3-6.6-.2-7.1 1.7-.6 2.3-5.1 5.4-6.9 4.7-1.1-.4-.4-1.5 2.6-4.2 2.8-2.6 4-4.4 4-6.4 0-3.4 5-8 8.7-8 1.5 0 3.6 1.2 5.4 3.1zm-108.4-1c4.3 1.7 1.3 2.1-3.3.5-2.7-1-3.2-1.5-1.7-1.5 1.2-.1 3.4.4 5 1zm-2.2 3.1c2.4 1.1 3.5 3.8 1.5 3.8-1.8 0-7.7-2.7-8.4-3.9-1-1.5 3.6-1.4 6.9.1zm11.8 1c7 2.9 12.7 6.8 12.7 8.4 0 2.9-1.6 2.1-13.4-5.9-7.8-5.4-7.6-6 .7-2.5zm-253.3 3.5c0 1.3-4.4 5.3-5.9 5.3-1 0-.6-.9 1.4-3 2.8-2.9 4.5-3.8 4.5-2.3zm167.5 9.3c-2.8 1.2-5.5 1.2-5.5 0 0-.6 1.7-1 3.8-.9 3 0 3.3.2 1.7.9zm92 .8c0 1.8-2 1.5-2.3-.4-.3-1 .1-1.5 1-1.2.7.3 1.3 1 1.3 1.6zm-336.2 11.7c1 .4 1.6.9 1.4 1.2-.9.8-6.5-2.6-8.6-5.3-3.7-4.8-2.2-5.7 1.7-1 2 2.5 4.5 4.8 5.5 5.1zm225.1-8.2c-.5 1.4-4.4 4.1-5 3.5-.2-.2.3-1.4 1.2-2.6 1.6-2.3 4.7-3.1 3.8-.9zm115.8 8.9c2 2.1 4.1 3.8 4.6 3.8s1 1.1 1 2.5-.6 2.5-1.2 2.5c-1.7 0-15.5-9.4-18.6-12.7-1.4-1.4-1.2-1.5 1.5-1 1.7.4 4 .9 5.2 1.3 2.1.6 2.3.4 1.8-2.7l-.5-3.4 1.2 3c.7 1.6 3 4.7 5 6.7zm-123.2-.8l2.9 2.3-2.7 1.2c-1.4.7-4.8 1.5-7.5 1.8l-5 .6 4.4-4.1c2.4-2.3 4.6-4.2 4.8-4.2.2 0 1.6 1.1 3.1 2.4zm-47.5 7.1c2.2.8 7.6 1.5 12 1.5 5.4.1 7.4.4 6 1-3.2 1.4-11.3 1.1-17.2-.6-4.2-1.2-6.7-1.4-10.9-.6-3 .5-5.4.5-5.4 0 0-.4 1.5-.8 3.3-.8 1.7 0 3.9-.5 4.7-1 2-1.3 2.8-1.2 7.5.5zm196.2 7.8c3.3.6 8.1-.1 8.9-1.4.3-.5 1.1-.9 1.7-.9.7.1.1 1-1.2 2-5.4 4.5-16.3 1.1-20.3-6.5-.6-1.1 1-.1 3.5 2.2 2.6 2.2 5.9 4.3 7.4 4.6zm-281.7 1.1c-1.4.8-4.1 1.7-6 2.1-2.8.6-3.3.5-2.3-.5.7-.7 2.9-1.6 5-2 5.6-1.1 6.1-1.1 3.3.4zm164 134.7c0 .6 1.3 2.1 2.8 3.4 1.6 1.3 4.4 5.5 6.2 9.2 1.8 3.7 3.9 7.5 4.6 8.3.7.9 1 2.1.5 2.8-1.1 1.9-6.7-4.9-10.9-13.2-3.7-7.2-5.6-13-4.1-12.1.5.4.9 1.1.9 1.6zm37.4 10.2c4.6 9.2 5.6 12.2 5.6 16.3 0 4.6-1.2 7.4-3.2 7.4-1.3 0-4-6.1-4.3-9.7-.2-1.8-1.5-6.8-2.8-11.1-3.9-12.1-4.2-14.2-1.6-14.2.4 0 3.2 5.1 6.3 11.3zm6.6 68.7c2.8 10.8 3.9 23 2.1 23-1.9 0-5.1-11-5.6-19.7-.3-4.8-.8-10.8-1.1-13.3-.7-7.2 1.5-2.3 4.6 10z"/><path d="M1258.7 619.7c-.7.7 1.1 4.5 2.7 5.5 3.5 2.4 9.3-.9 6.5-3.7-1.5-1.5-8.2-2.8-9.2-1.8zM1279 621.1c0 .5.4.7 1 .4.5-.3 2 0 3.2.6 2.1 1.1 2.2 1.1.9-.4-1.5-1.9-5.1-2.3-5.1-.6z"/><path d="M1289.1 622.8c-1.3 1.4-2.5 3.9-2.6 5.5-.3 3.6-.4 3.7-4.5 2.7-2.3-.5-2.7-.8-1.3-.9 3.5-.2 3.5-1.8 0-3.1-1.7-.6-4-1.6-5.1-2.2-1.7-.9-1.8-.7-1.2 2.4 1.7 7.9 1.7 12.3.2 14.3-.9 1.1-3 3.9-4.7 6.3-5 7.2-15.5 10.6-18 6-.9-1.6-.9-2.3 0-2.6.6-.2 1.1-1 1.1-1.8s1.3-1.7 3-2.1c3.9-.7 4.3-1.6 4.7-8.2.2-4.2-.1-5.7-1.5-6.7-2.7-2.1-6.8-1.6-10.2 1.3-3 2.5-3.2 2.9-2.7 8 .4 4.2.1 5.8-1.4 7.6-1 1.2-1.8 1.7-1.9 1.1 0-1.4-8.9-8.8-9.6-8.1-.3.3 1.3 3.3 3.6 6.7 3.8 5.6 4.5 6.2 7 5.6 2.4-.4 2.9-.1 3.5 2.1.3 1.4.1 3.1-.4 3.6-.8.8-1.1.8-1.1 0 0-1.5-3.8-2.3-4.3-.9-.7 1.8 1.1 5.6 3 6.3.9.4 1.9.1 2.1-.5.2-.7.8-1 1.2-.7.5.3.7-.4.5-1.6-.2-1.2-.2-1.9.1-1.6.3.3 1.7.2 3-.3 1.7-.7 2.8-.5 4 .8 1.6 1.5 4.8 1.7 32.3 1.7 31.7.1 39 .8 47.1 5 2 1.1 3 1.1 3.2.3.6-1.7 2.8 0 2.8 2.2 0 4.1 1.8 2.7 2.2-1.6.2-2.5 0-4.8-.4-5-.5-.3-.8-2-.8-3.7-.1-2.7-.8-3.7-4.5-6-7.6-4.8-15.7-6.4-10.5-2.1 1.7 1.5 2.9 2.9 2.6 3.1-.3.3-2.9-.6-5.8-1.9-3-1.4-7-2.8-9.1-3.2-3.3-.6-3.6-.9-3.2-3.4.3-1.5-.3-4.9-1.3-7.5-2.1-5.8-13.8-19.5-16.7-19.6-1.1 0-3.1 1.2-4.4 2.7zm-43.1 29.6c0 .3-.4.8-1 1.1-.5.3-1 .1-1-.4 0-.6.5-1.1 1-1.1.6 0 1 .2 1 .4zm90.4 9.2c.3.8-.1 1.4-.9 1.4s-1.5-.2-1.5-.4-.3-1.2-.6-2c-.4-1.2-.2-1.5.9-1 .9.3 1.8 1.2 2.1 2zM1164.5 643.7c.3 1.1.1 1.3-1 .9s-1.5.1-1.5 1.9c0 1.8.5 2.5 1.9 2.5 1.1 0 2.1.6 2.4 1.2.3 1 .7 1 2-.1.9-.7 1.4-1.8 1-2.3-.3-.6-.6-2-.7-3.2-.1-1.5-.8-2.1-2.4-2.2-1.7-.1-2.1.3-1.7 1.3zM1175 644.1c0 .8 1.1 1.6 2.5 1.7 1.4.1 2.5-.3 2.5-.9 0-.6-.6-.9-1.4-.6-.7.3-1.9 0-2.5-.6-.8-.8-1.1-.7-1.1.4zM1367 667.5c0 1.8 3.2 3.6 4.8 2.6.7-.4 1-1.5.6-2.4-.8-2.1-5.4-2.3-5.4-.2zM1360 672c-1.2.7-1.2 1.2-.3 2.1 1 1 1.8 1 4 0s2.4-1.4 1.2-2.2c-1.8-1.1-3-1.1-4.9.1zM1300.5 700c-.4.6-1.6 1-2.8 1-1.8 0-1.9.2-.7 1 .8.5 1.1 1 .7 1-.5 0 .1 1.7 1.2 3.7 1.1 2.1 2.2 5.5 2.6 7.5.3 2.1 1.1 4 1.7 4.4.7.5.8.2.3-.6-.5-.9-.4-1.1.4-.6.7.5 1.6 1.9 2.2 3.3.5 1.3 1.3 2.2 1.8 1.9.5-.4 1.2 0 1.5.6.5 1 .7 1 1.2 0 .3-.6 1.7-1.2 3.1-1.2 1.6 0 2.7-.7 3-2 .3-1.1.9-1.7 1.4-1.4 1.3.8 2.9-4.1 2.9-8.9 0-2.8-.6-4.8-1.7-5.7-3.4-2.8-17.7-5.8-18.8-4zm.5 5c0 .5-.5 1-1.1 1-.5 0-.7-.5-.4-1 .3-.6.8-1 1.1-1 .2 0 .4.4.4 1zM1090.2 702.5c-4.9 2.1-17.8 2.1-21.1 0-.5-.3-1.2-.1-1.6.5-.4.6-1.2.7-1.8.3-.8-.4-.7-.1.1.9 1.2 1.4 1 1.6-.9 1.1-2.3-.6-2.3-.6.4 4 1.5 2.5 2.7 5.4 2.7 6.5 0 1.1.7 2.5 1.5 3.2.8.7 1.5 1.7 1.5 2.2 0 .5 1.2 3.4 2.6 6.3 1.4 3 2.6 6.4 2.7 7.5.1 1.1.4 2 .7 2 .7 0 2.8 9.7 5 22 .7 4 2.4 8.6 4.4 12 1.9 3 4.5 7.9 5.8 10.8l2.5 5.3-2.4-1.7c-1.4-.8-2.7-1.4-2.9-1.1-.7.7.7 3.7 1.7 3.7.5 0 .6 2 .3 4.4-.5 3.1-.1 5.9 1.3 9.7 1.7 4.6 2 7.6 1.8 19.4-.1 7.7-.6 15.4-1 17.1-.4 1.9-.3 3.4.3 3.8.6.3.8 1.5.5 2.7-.4 1.5 0 2.2 1.6 2.6 1.1.3 2.1 1.2 2.1 1.9 0 .8.5 1.4 1 1.4.6 0 1 .6 1 1.3 0 .8 1 1.9 2.3 2.5 2.1 1 2.1 1.1.2 1.2-1.5 0-1.1.5 1.4 1.6 2.6 1.1 3.2 1.7 2.3 2.6-.8.8-.6 1.6 1 3 1.2 1 1.7 1.8 1.1 1.8-1.2 0-3.3 6.7-2.6 8.6.3.8-.2 1.7-1.1 2-1.4.5-1.5 4.2-1.2 32.2.2 17.5.6 32.4.9 33.2 1 2.7 1.8 15.2 1 14.7-.5-.3-.3 3.1.4 7.6s1.5 10.6 1.8 13.6c.2 2.9.8 6.3 1.2 7.5.4 1.1.8 2.8 1 3.6.4 1.7 1.5 27.5 1.3 30.5-.1 1.1-.1 6.2 0 11.3.1 6-.3 9.8-1.1 10.8-.9 1.1-.9 1.4.1 1.4.9 0 1 .9.5 3.2-.4 1.8-.8 5.6-1 8.4-.1 2.8-.8 6.8-1.5 8.8-.6 2-.9 4.3-.6 5.1.3.8.1 1.7-.5 2.1-.6.3-.8 1.3-.5 2.1.3.8.1 1.1-.4.8-.6-.3-1-.1-1 .4 0 .6.5 1.1 1.1 1.1.6 0 .3.7-.5 1.6-.9.8-1.4 1.9-1.2 2.2.2.4 0 4.1-.5 8.2-2.2 18.8-2.2 23.6-.3 29.6 1 3.3 2.1 6.1 2.4 6.4.4.3 1.5 2.1 2.6 4 1 1.9 2.8 4.4 4 5.5 1.1 1.2 1.9 2.6 1.6 3.3-.2.6.8 1.6 2.2 2.2 1.5.5 2.4 1.5 2 2.3-.2.7.4 2.2 1.6 3.2 1.1 1 2 2.4 2 3.1 0 .7.8 1.8 1.8 2.3.9.6 1.2 1.1.5 1.1-1.9 0-1.2 5.6.8 6.9 1.4.8 1.9.8 1.9 0s.4-.8 1.4 0c1 .8 1.6.9 2.1.1.3-.6 1.1-.8 1.6-.4.5.3.9.2.8-.3-.4-2.1.2-4.4 1-3.9.5.3 1.2-.1 1.5-1 .3-.8 1-1.3 1.5-.9.5.3 1.2-.4 1.6-1.5.4-1.1 1.1-1.8 1.6-1.5.5.4.9-.1.9-.9 0-.9.4-1.6.9-1.6s2.2-1.2 3.9-2.8c6.6-6.1 8.1-7.1 8.8-6.1.4.7.9.8 1.3.1.3-.5 1.3-1.1 2.1-1.2 3.3-.5 3.8 0 3.1 2.7-.5 1.9-2.9 4.3-7.5 7.4-7.9 5.4-12.4 9.6-6.5 6.1 6.4-3.8 12.2-2.4 12.1 3.1-.1 4.6-10.4 56.6-12.2 61.3-1.2 3.2-3.3 3.9-6.3 2.2-7.5-4.1-11-5.7-11.6-5.3-.4.2-.8-.6-.8-1.7-.3-3.1-2.2-4.7-3.3-2.8-.8 1.3-1.1 1.2-2.4-.5-2.5-3.4-3.9-.5-4.2 8.7-.1 4.6-.5 10.8-.8 13.8-.4 3-1.1 13.1-1.5 22.5-.5 9.3-1.7 26.4-2.7 38-1.5 18.1-1.6 22.6-.5 33.8 1.3 13.3 2.8 17.6 6.5 19.3 1.3.6 2 1.6 1.8 2.8-.3 1.3.1 1.7 1.2 1.3 1-.4 1.3-.1.9.9-.3.9 0 1.4.8 1.2.8-.2 1.5.7 1.7 2.1.5 3 2.3 4.9 4.2 4.4.9-.3.7.3-.6 1.4-2.6 2.3-4.4 5.6-9.9 19-3.3 7.8-4.3 11.2-3.9 14 .3 2.3 0 4-.8 4.5-.7.4-.8.8-.3.8.7 0 .9 1.5.7 3.5-.4 3.4.9 4.7 2.3 2.4.4-.6 1.3-.8 2-.5.8.3 1.5.2 1.7-.2.2-.4 2-1.8 4.1-3l3.8-2.2 2.5 2.5c2.6 2.6 2.6 2.4.9 20.6-.7 7.4.7 20.4 2.6 24.1.5.9 3.1 4.6 5.8 8 2.6 3.5 5.5 7.7 6.3 9.3 1.9 3.7 3.7 12 4.4 20 .3 3.3.7 6.9.9 8 .1 1.1.3 2.8.4 3.7.2 2.5 3.2 5.3 4.2 3.7.4-.7.5-1.9.1-2.7-.3-1-.1-1.3.6-.8.7.4 1.2.2 1.2-.4 0-.6.7-1.8 1.5-2.6s1.1-2.2.8-3.2c-.3-.9-.3-1.4.2-1 .9.9 3.5-1.6 3.5-3.4 0-.8.4-1.8.9-2.4 1.3-1.3 4.2-11.5 3.5-12.5-.3-.5-.2-.9.3-.9.4 0 .9-3.2 1.1-7.2.2-3.9.7-7.9 1.1-8.7.5-.9 1.2-5.9 1.5-11.1.8-10.6 2.3-17.8 4.1-20 2.2-2.7 3.8-17.1 2.6-23.1-2.7-13.1-1.8-29.4 1.9-36.1.6-1 1-2.4 1-3.2 0-.7.9-3.4 2.1-6 1.1-2.5 1.7-5.1 1.4-5.6-.3-.6-.2-1 .3-1s1-2.1 1.1-4.8c.1-2.6.4-6.5.7-8.7 1-8.3 1-13 .2-14.2-.6-.7-.6-1.9 0-2.9.6-1.1.3-3.2-1-6.6-1-2.7-1.6-5.3-1.3-5.8.3-.4-.2-1.1-1.1-1.4-1.1-.4-1.5-1.4-1.1-3.3.3-1.5 0-3.7-.5-4.9-.6-1.3-.7-3.1-.2-4.1 1.2-2.6 1.2-7.7 0-8.6-.7-.4-.8-1-.1-1.5 1.2-.8 1.9-9.6.7-8.8-.4.2-.8-.4-.8-1.4 0-1.1.6-1.6 1.6-1.3 1.3.4 1.3.4 0-.6-1.6-1.1-2.2-7.1-.7-7.1.4 0 .7-2.7.6-6.1-.2-4.2.2-6.3 1.1-6.9 1.1-.7 1.1-1.1.1-2.3-1-1.3-.9-1.6.6-2 1.7-.4 1.7-.5.1-.6-1 0-1.8-.8-1.8-1.7 0-1 .6-1.4 1.5-1 .9.3 1.5 0 1.5-.9 0-.8-.4-1.5-1-1.5-.5 0-1-.5-1-1 0-.7.6-.7 2 0 1.6.9 2 .8 2-.5 0-.9-.7-1.8-1.5-2.1-1.2-.5-1.3-.9-.4-2.1 1-1.1 1.4-1.1 2-.1.6.9.9.6.9-.9 0-2.5-1.6-3.9-2.3-2.1-.3.7-.6.3-.6-.9-.1-1.7.4-2.1 1.9-1.8 1.2.2 1.8 0 1.5-.6-1-1.5.5-6.9 2-6.9 1.6 0 2.6-2.5 1.9-4.5-.4-.8-1.3-1.5-2.1-1.5s-1.3-.6-1-1.3c.2-.6.9-1.1 1.4-1 1.2.2 1.3-.4 1.7-10 .1-4.5-.2-7.7-.7-7.7-.6 0-.2-.9.8-2 1.3-1.4 1.4-2 .5-2-.7 0-1.1-.3-.7-.6.3-.3.2-1.7-.3-3-.6-1.6-.6-2.4.1-2.4.6 0 .7-.5.3-1.2-1.1-1.8-1.3-6.8-.2-6.8.5 0 .6-.5.2-1.2-.4-.6-.9-3.3-1.1-6-.3-3.9-.1-4.8.9-4.2.7.4.6-.1-.3-1.2-1.5-1.8-1.8-8.7-.6-17.4.2-1.4 0-3.5-.5-4.7-.4-1.2-.3-2.5.2-2.8 1-.6.8-4-.2-5-.3-.4-.2-2.2.3-4.1.6-1.9.7-3.8.4-4.3-.3-.5-.1-1.2.5-1.6.6-.4.8-1 .6-1.4-1-1.5-.6-16.5.7-27.6.3-2.2.8-7.4 1.2-11.5.4-4.1 1.2-8.1 1.8-8.7.5-.7.7-2.2.4-3.3-.3-1.1-.1-2 .3-2 .5 0 .8-1.3.8-2.9-.1-1.5.2-3.4.6-4 .9-1.5 3.7-15.3 4.1-20.1.2-1.9.4-4 .5-4.5.3-1.4-.1-21.8-.5-24.7-1-7.4-1.9-10.4-3.3-11.6-1-.7-1.1-1.1-.4-.7.6.3.3-1-.9-2.9-2.3-3.9-3.9-5.4-3.9-3.6 0 .7-.6.5-1.5-.4-.8-.8-1.5-1.9-1.5-2.5 0-.6-.8-1.1-1.7-1.1-.9 0-2.5-.7-3.5-1.6-1.6-1.6-8-2.6-15.3-2.4-2.9.1-7.4-1.7-8.6-3.4-.4-.4-1-.3-1.4.4-.4.7 2.2 3.9 7 8.5 4.2 4.1 7.4 7.8 7 8.4-.3.7 0 .8.9.5 1.5-.6 2 .6 1.9 4.3-.1.7.3 1.3.8 1.3s.9.4.9.8c0 .5-.7.9-1.5.9s-1.5-.4-1.5-.8c0-1.5-4.7-5.9-6.6-6.2-2.9-.5-8.6-3.5-11.4-6-7-6.3-8.5-19.5-3.4-30.3 1.8-3.9 5.1-7.7 11.5-13.6 10.5-9.7 12.1-11.9 12.3-16.9.1-5.6-6.1-10.7-7.8-6.4-1 2.6-3.6 1.7-3.6-1.3 0-4.2-2-10.3-3.6-10.9-.8-.3-1.4-1.4-1.4-2.6 0-2-.1-2-2.5.3l-2.5 2.3v-3.4c0-4.5 3-17.1 4.4-18.4 1.7-1.6 4.4-6.3 8.2-14.5 6.5-13.9 7.2-15.5 8-20.8.3-2 1-4.6 1.5-6 .5-1.4.7-2.7.4-3-.2-.3.3-1.1 1.3-1.9.9-.8 1.1-1.2.5-.8-1.5.7-1.8-2.1-.3-3 .5-.3.7-1.3.4-2.3-.4-1-.3-1.3.3-.6.4.6 1.6 1.3 2.5 1.7 1.2.4 1.5.2 1.1-.9-.3-.8.3-2.5 1.4-3.7 1.1-1.2 2.3-3.9 2.6-5.9.3-2.1 1.6-5.9 3-8.5 1.7-3.5 2.2-5.5 1.6-7.6-.4-1.5-.4-2.5.1-2.2.7.4 2.5-10.1 2.3-13.3 0-.6.2-1.2.6-1.2.4 0 .5-1.5.3-3.3-.3-1.7-.1-2.9.3-2.4 1 .9 4.5-2.1 4.5-4 0-.7.7-1.3 1.5-1.3.9 0 1.2-.6.9-1.5-.3-.8.1-2.2 1-3 .9-.9 1.6-2.7 1.6-4 0-1.3.5-2.5 1.1-2.7.6-.2 1.2-1.8 1.3-3.6.1-1.8.9-3.7 2-4.5 1.1-.8 1.6-1.9 1.2-2.5-.4-.7-.3-1.2.1-1.2.5 0 1.6-2.2 2.6-5s2.7-5.5 4-6.1c2.8-1.6 4.7-3.5 4.7-4.8 0-.6 1.1-1.1 2.3-1.1 1.3 0 3.2-.9 4.2-2s2.1-1.7 2.5-1.5c.4.3 1.8-2 3-5s2.7-5.5 3.2-5.5.7.4.3.9c-.4.8 4.9-1.3 6.3-2.5.2-.1-.2-1.1-.9-2.3-1.1-1.6-2.1-1.9-5.6-1.6-6.4.5-10.9-1.3-16.2-6.6-4-3.9-5.7-4.9-10.7-5.9-3.2-.6-9.3-2.3-13.4-3.7-7.8-2.7-17.2-3.6-38-3.7-14.2-.1-28 1.5-28 3.3 0 1.2-5 3.2-6.1 2.5-.5-.3-.7-1.4-.4-2.4.7-2.3-3.5-4.1-9.6-3.9-2.5.1-5.2-.1-5.9-.6-2.4-1.5-20.3-1.4-23.8 0zM1173 926c0 .5-.4 1-.9 1-.6 0-1.3-.5-1.6-1-.3-.6.1-1 .9-1 .9 0 1.6.4 1.6 1zm4 176c-.5 1.7-.5 3.2.1 3.5.9.6.7 5.2-.2 7-1 1.9 0 19.5 1.5 28.5.1.3.4 1 .8 1.6.4.6 1 2.4 1.2 4 .6 2.9.7 3.6 2.5 10.9.9 3.4.9 6.4.1 8.5-.1.3-.1 1.5 0 2.8.1 1.3-.4 3-1.2 3.9-.9 1.2-.9 1.5-.1.9 2-1.2 1.1 7.4-1 8.8-1.3 1-1.4 1.5-.4 2.6 1 1 .9 1.2-.4.7-1.3-.4-1.6-.1-1.2 1.6.5 2.2.5 2.2-1 .2-1.1-1.4-1.4-3.7-1.1-9 1.2-19.4.7-26.6-2.5-35.7-3-8.7-3-8.8-2-20.5.6-6.5 1.5-13.6 2.1-15.8.6-2.2 1.2-4.5 1.3-5 .1-.6.3-1.3.3-1.8.1-.4.6-.7 1.1-.7.6 0 .6 1.2.1 3zM1412.2 708.5c-1.3 1-2.3 1.1-2.7.5-.8-1.3-4.5 1-4.5 2.8 0 .9-.5 1-1.6.4-1.9-1-8.3 1.7-8.4 3.5 0 .7-.5 1.3-1.1 1.3-.5 0-.8-.4-.5-.9.3-.5-.1-1.2-1-1.5-2.1-.8-3.1-.7-1.8.2.6.4 1.5 1.8 1.9 3.2.7 2.4.7 2.5-.9.5l-1.7-2 .3 2c.4 2.1 1.7 2.3 5.6 1.1 2.2-.7 2.3-.6 1.3 1.3-1 1.8-.9 2.1 1.1 2.1 1.3 0 3.8-.9 5.6-2 3.1-1.9 3.3-1.9 3-.3-.3 1.7 3.5 4.3 7.2 4.9.8.1 2.4.5 3.5.9 1.6.6 1.7.5.5-.4-1.3-.9-1.2-1.1.3-1.1 1.1 0 1.5-.4 1.1-1.2-.4-.7-.3-.8.4-.4s1.2 1.5 1.2 2.4c0 1.5.2 1.5 1 .2.8-1.2 1.2-1.3 1.9-.2.5.9 2.6 1.3 6.4 1.1 3.1-.1 5.9 0 6.3.3.3.4 1.2.4 2 .1 2.2-.8 4.4 1.6 4.4 4.8 0 2.4.4 2.9 2.5 2.9 1.4 0 2.5.4 2.5.9s1.8 1.2 4 1.6c2.2.4 4 1.1 4 1.6 0 .6.4.8.9.4.5-.3 1.2-.1 1.6.5.3.5 1.4 1 2.3 1 .9 0 3.7 1 6.2 2.2 2.5 1.2 4.7 2.2 5 2.2.3.1 1.1.5 1.8.9.6.5 1.2.6 1.2.2 0-.3.9-.1 1.9.5 1.3.7 2.2.7 2.6 0 1-1.6 4.1-1.2 7.9.9 1.9 1.1 3.6 1.7 3.9 1.5.3-.3 3 .6 6 2 2.9 1.4 6.7 2.6 8.4 2.6 2.1 0 3.3.7 4.3 2.5.7 1.3 2.1 2.7 3.1 3 1 .3 3.2 1.9 5 3.6 4.3 4 6.3 3.9 5.5-.3-.8-3.8-6.5-12.5-8.7-13.3-.9-.3-2.6-1.7-3.9-3l-2.3-2.5h3c1.7 0 4.2 1 5.7 2.1 2 1.5 3.1 1.8 3.8 1.1 1.1-1.1 7.7.9 10.6 3.1.7.6 2.5 1.1 4 1.3 1.5.1 3 .2 3.3.3.4.1 2.5 2 4.7 4.3 3 3 3.8 4.5 3.2 5.7-.5.9-1.6 3.6-2.5 6-1.5 4-1.5 4.6-.1 6 1.3 1.2 1.6 1.2 1.6.2 0-1.1.5-.9 2 .4 1.1 1 2 3.1 2 4.6 0 1.9.6 3 2 3.4 1.3.4 2 1.5 2 3.3 0 2.1.9 3.2 4 5 2.2 1.3 3.8 2.7 3.6 3.1-.6 1 2.3 3.8 4.3 4.3.8.2 2.2 1 3.2 1.8s2.4 2.1 3.3 2.7c1.8 1.6 7.2 1.7 8.1.3.4-.6 1.4-.9 2.3-.8.9.2 1.7-.4 1.8-1.2 0-.8.2-2.3.2-3.3.3-3 2.1-1.8 3.3 2.3 1.2 3.9 3.6 5.8 2.6 2.1-.8-3 3-2.2 4.3.9 1.6 3.8.9 9.2-1.2 9.8-1.3.3-1.6 1.1-1.2 2.8.4 1.5.2 2.4-.5 2.4-2 0-1.1 2.8 1.5 4.5 1.4.9 2.3 1.9 2 2.2-.3.3.3 1.3 1.3 2.2 1 .9 2 2.3 2.4 3.1.4 1.2.6 1.1.6-.3.1-2 1.2-2.2 2.9-.5 1.9 1.9 5 2 5.4.1.3-1.5.4-1.5 2 .1 1.4 1.4 2.1 1.5 3.7.4 1.4-.9 1.7-1.6 1-2.5-1.4-1.6-.3-3.4 1.6-2.7 1 .4 1.3 1.4.9 3s-.2 2.4.6 2.4c.9 0 1.1 1.1.7 3.4-.3 1.9 0 3.9.6 4.5.8.8.8 1.1-.2 1.1s-1.1.3-.2 1.4c.9 1.1.5 1.5-2.3 2-3.3.6-5.1 2.7-4.7 5.4.1.8-.5 2.3-1.5 3.3-.9 1.1-1.4 2.2-1.1 2.6.4.3.1 1.3-.7 2.2-1.9 2.2-3.5 15.2-2.2 18.1.6 1.2 2.8 4.1 5.1 6.4 5.9 6.1 11.9 14.7 12 17.1.1 1.2.4 2.6.8 3.2.4.6.9 4.6 1.2 8.9.2 4.4.7 9.5 1 11.4.6 3.5 1.2 8.2 2.2 15.5.3 2.2.9 4.4 1.3 4.8.4.5.5 2.5.3 4.4-.3 2.3-.1 3.3.5 2.9.6-.4 1.1.2 1.2 1.1 0 1 .2 4.7.4 8.3.2 3.6.5 6.5.6 6.5.2 0 .4 1.6.5 3.5.6 7.8 2.6 19.4 3.6 20.7.6.7 1.7 1.3 2.4 1.3.8 0 1.6.6 1.8 1.2.4 1 .7 1 1.5 0 1.7-2.5 3.5 5.7 2.3 10.8-.6 2.5-1.1 7.3-1.1 10.6 0 3.8-.5 6.6-1.3 7.2-2.1 1.8-1.5 16.7.8 19.2 1.4 1.6 1.6 3 1.2 7.9-.6 6.1-4 15.8-6.2 17.6-1.2 1-8 11.2-10.2 15.3-.7 1.3-1.9 4.5-2.7 7.1l-1.4 4.7 5.9 9.4c3.2 5.2 5.9 9.9 5.9 10.5-.1 1.2-1.8-1-4.4-5.7-1.7-3-1.9-3.1-2.7-1.3-.4 1.1-.8 4.8-.8 8.1-.1 9.3-1.8 16.4-5.1 21.7-1.7 2.7-3 5.8-3 7 0 1.2-.9 3.5-2 5.2-1.5 2.2-2 4.7-2 9.6 0 6.5 1.5 12.9 2.9 12.9 1.1 0 3.4-3 5.6-7.3 2.1-4.1 3.5-4.8 3.2-1.7-.1 1.1-.4 2-.7 2-.4 0-.7 2-.9 4.5-.2 4.3 0 4.6 2.8 5.1 1.8.4 3.3 1.4 3.7 2.6.9 3 2.8 1.8 8.3-5.1 3.4-4.2 5.1-7.3 5.1-9.2 0-1.5.4-3 .9-3.3.9-.6 2.1 4.9 2.1 9.9v3l2.5-3.7c2.2-3.3 5.7-5.5 7.7-5 .4.1 1.7-1.6 2.8-3.7 1.1-2.2 2.4-4.2 3-4.6.5-.3 1-1.4 1-2.3 0-.9.5-3.4 1.1-5.5.7-2.7 1.5-3.7 2.7-3.5 1.8.3 2-1.1.8-4.8-.6-2-.1-2.5 3.7-3.2.4-.1 2-.8 3.7-1.7 3.4-1.8 4.4-1.9 3.5-.5-1.2 2 .5.9 3.9-2.4 2-1.8 3.7-3.1 4-2.9.2.2.7-.5 1.1-1.6.3-1.2 1-2.1 1.4-2.1.3 0 1.8-2.9 3.1-6.4 1.3-3.6 2.7-6.3 3-6.1.4.2.6-.6.4-1.8-.1-1.2.5-3.2 1.2-4.4.8-1.2 1.4-2.9 1.4-3.8 0-.8.7-1.5 1.5-1.5s1.5-.8 1.5-1.9c0-2.1 5.9-8.3 7.2-7.5.4.3.8 0 .8-.5 0-.6.7-1.1 1.6-1.1 4 0 5.3-5.7 2.6-10.8-.9-1.5-1.1-4.4-.7-8.7.4-3.6.1-9.8-.6-14.2-1.2-7.7-1.7-8.6-7.4-13.2-2.1-1.7-1.5-5.8 2.2-13.8 1.5-3.2 2.9-6.7 3-7.7.2-1.1 1-3.8 1.7-6 1-2.8 1.1-4.8.4-6.6-.5-1.4-.9-2.7-.9-3 .1-.3-.5-.5-1.1-.5-2 0-4.8-4.1-4.8-6.9 0-1.5 1.2-5.4 2.6-8.8 1.4-3.4 3.2-9.4 4-13.5.7-4 2.7-10.4 4.2-14.1 3-6.9 3.2-7.5 3.2-9.2 0-.5 1.7-2.9 3.8-5.2l3.7-4.2-3.8 2.9c-2.1 1.5-5 4.8-6.4 7.2-1.4 2.4-2.7 4.2-2.9 4-1-1 6.9-12.3 9.9-14.2l3.2-2-4.2-.3c-4.6-.3-9.4 1.7-15.7 6.7-3.5 2.8-8.6 4.2-8.6 2.3 0-.4-1.2-.8-2.6-.8-1.4-.1-3.4-1-4.6-2-1.7-1.6-1.9-2.7-1.5-6.5.5-3.7.2-4.7-1.4-5.7-1-.7-1.9-2.1-1.9-3.2 0-1-1.4-3.6-3.2-5.6-1.8-2-3.3-4.3-3.4-5.1-.2-.8 1.1-3.8 2.8-6.5l3.1-5-2.1-4.3c-1.1-2.4-3.9-5.8-6.2-7.6-3.6-2.9-8-8.5-8-10.3 0-.3.7-.6 1.5-.6.9 0 1.2-.6.9-1.5-.8-1.9.6-1.9 3.3 0 1.4 1 2.4 1.2 2.8.5.4-.6 1.2-.4 2.2.6 1 .9 2.7 1.4 4.4 1.2 1.8-.3 3.2.2 4 1.3.7 1 1.6 1.6 2.1 1.3.4-.3.8.1.8.9 0 .7 1.2 1.9 2.6 2.5 1.4.7 2.3 1.6 2 2-.3.5 1 1.4 2.9 2.1 1.9.7 4.4 2.5 5.5 4.2 1.2 1.6 3 3.4 4 3.9 2.2 1.2 7.3.3 6.4-1.1-.3-.5 0-.9.5-.9.6 0 1.1-.5 1.1-1.1 0-.5-.3-.8-.7-.6-.8.5-3.1-1.5-3.6-3-.1-.5-.5-.7-.9-.6-.5.2-.8-.2-.8-.7 0-.6.5-1 1.1-1 .8 0 .8-.4 0-1.4-1.5-1.8-2.3-5.6-1.1-5.6.5 0 1.2-1 1.6-2.3.4-1.2 1.2-2.6 1.8-3 .8-.6.8-1-.1-1.4-.7-.2-1.3-1-1.3-1.7s-.5-1.7-1.2-2.4c-1.2-1.2-1.6-2.5-2.5-8.1-.6-3.8-3.1-7.3-4.6-6.4-.5.3-.8 0-.5-.8.8-2.5 3.7-2.2 4.8.6.5 1.4 1.8 2.8 2.7 3.2 1 .3 2.6 1.3 3.6 2.1.9.8 1.7 1.2 1.7.8 0-.4 1-.1 2.3.5 1.9 1.1 2 1 1-.2-.7-.9-1.4-3.3-1.7-5.4-.3-2.1-1-4.1-1.6-4.5-.7-.4-1.1-1.1-1-1.6 0-.5-.2-1.8-.6-2.9-.3-1.1-.7-2.3-.8-2.7 0-.4-.9-1.5-1.9-2.5-4.9-5.1-8.2-9.2-12.5-15.7-9.3-14.1-35-37.7-51.7-47.4-7.5-4.5-27.2-11.6-34.8-12.7-5.3-.7-10.2-2.8-12.4-5.3-1.4-1.6-2.7-2.3-3.8-1.8-1.2.4-1.6.2-1.2-.8.3-.7-.3-2.8-1.4-4.5-1-1.7-1.9-4.1-1.9-5.2 0-2.5-2.5-3.5-4.7-1.8-1.5 1.3-1.6 1.1-.8-1.6 1.1-4.4.6-11.7-1.1-13.6-.8-.9-2.5-1.4-4.2-1.1-2.2.3-3.6-.4-6.4-3.2-2-2-4.5-3.6-5.6-3.6-1.1 0-3.5-.7-5.4-1.5-2-.8-6.9-2.2-10.9-3.1-7.6-1.7-13.4-3.8-22.5-7.9-4.7-2.2-8.4-3.3-15.9-5.1-1.6-.4-3.4-.6-3.8-.5-.5.1-2.3.3-3.9.5-1.7.2-3.5 1.1-4 2-.5.9-1.5 1.6-2.2 1.6-.7 0-3.2 2-5.5 4.5-4.1 4.3-6.3 4.9-7.5 1.9-.5-1.3-1.1-1.2-4.3.1-3.7 1.6-5.2 1-5.3-2.1 0-.6-1.2-1.7-2.6-2.4-1.4-.8-3.5-2.7-4.6-4.2-1-1.5-2.8-2.8-3.9-2.8s-1.8-.4-1.5-.9c.3-.5-1.8-1.2-4.7-1.6-8.3-1.2-16.4-.4-15.1 1.6.3.6-.5.7-2.3.3-4-1.1-5.4-.8-10.7 1.6-3.8 1.8-4.9 2-6.2 1-1.1-1-1.8-1-2.6-.2-1.8 1.8-2.7 1.5-4.6-1.7-.9-1.5-2-2.9-2.4-3-.5 0-.9-.1-1-.2-2.7-.8-4.9-.6-6.6.6zM1602.5 812c-.4.6-.2 1.7.4 2.4.9 1 .7 1.5-.8 1.9-2.3.6-3.3-2-1.6-4 1.2-1.5 2.9-1.7 2-.3zm33.5 9c0 .5-.5 1-1.1 1-.5 0-.7-.5-.4-1 .3-.6.8-1 1.1-1 .2 0 .4.4.4 1zm62.3 34.7c3 .4 3.6.8 2.3 1.5-.9.5-2.1.6-2.8.2-.6-.4-.9-.3-.6.2.3.5-.3 1.7-1.3 2.6-1.6 1.5-1.8 1.5-3.3 0-.8-1-1.9-3.7-2.4-6l-1-4.3 2.5 2.6c1.5 1.4 4.3 2.8 6.6 3.2zm6.5 3.8c-.3.3-.9-.2-1.2-1.2-.6-1.4-.5-1.5.5-.6.7.7 1 1.5.7 1.8zm-54.6 21.7c5.9 6.4 14.5 19 17.3 25.3 2.6 5.8 3.3 12.5 1.4 12.5-.6 0-.9-.7-.5-1.5.3-.8.1-1.5-.4-1.5-.6 0-1-.9-1-2 0-1.2-.9-3.8-1.9-5.9-2.7-5.2-15-23.2-17.3-25.2-1-.9-1.8-2.1-1.8-2.8 0-.6-.4-1.1-1-1.1-.5 0-1-.5-1-1 0-2.1 2.5-.8 6.2 3.2zm25.2 35.8c1.3 0 3.6 2.8 3.6 4.4 0 2.7-4.3.2-6.2-3.5-2.3-4.5-2.2-5.7.1-3.1 1 1.2 2.2 2.2 2.5 2.2zm-3.5 19.8c.1 6-.2 9.9-1 10.8-1.3 1.6-4.9 1.9-4.9.4 0-.6.5-1 1-1 .7 0 .7-.6.2-1.8-.5-.9-.8-2.6-.5-3.7.2-1.1.6-5.8.9-10.5.3-4.7.8-9.2 1.1-10 1.1-2.9 3 6.5 3.2 15.8zm41.5 23.9c-3.5 6.1-6.4 9.3-3.9 4.3 2-4 5.4-9 6.1-9 .3 0-.7 2.1-2.2 4.7zm-12.2 25.3c-.2 1.6-1.1 3.5-1.9 4.1-1.2 1.1-1.3.9-.4-1.2.5-1.3 1.2-3.2 1.5-4.2.8-2.7 1.3-2 .8 1.3zm-2.9 9.8c-.5 1.1-.6 8.5-.3 16.3.4 10.1.1 15-.7 16.6-.7 1.3-.8 2.1-.3 1.8.6-.4 1 .2 1 1.3 0 2.1-3.1 6.2-4.8 6.2-.5 0-1.2.9-1.5 2-.4 1.6-3.7 3-3.7 1.6 0-2 2.2-5.6 3.5-5.6.8 0 1.5-.7 1.5-1.5s.5-1.5 1.2-1.5c.6 0 .9-.3.6-.6-.4-.3-.1-2 .6-3.7.9-2.2 1.1-7.7.9-17.2-.2-9.5 0-14.7.8-16.2 1.5-2.8 2.2-2.4 1.2.5z"/><path d="M1396 712c-1.3.8-1.2 1 .3 1 .9 0 1.7-.5 1.7-1 0-1.2-.1-1.2-2 0zM1329.7 715.5c-.4.8-.2 1.7.3 2 .6.4 1-.3 1-1.4 0-2.5-.6-2.7-1.3-.6zM1380 717c0 .6.7 1 1.5 1s1.5-.2 1.5-.4-.7-.6-1.5-1c-.8-.3-1.5-.1-1.5.4zM1312.5 745.4c-2.7 1.4-5.8 3.1-6.8 4-1.6 1.2-7.1 13.8-8.2 18.7-.8 3.7-.8 8.5-.1 9.8.6.9.5 1.2-.4.9-.7-.2-2.5-3.7-3.9-7.8-1.5-4-3.3-7.5-4.1-7.7-.8-.3-2.2-.7-3-1-.8-.3-3.3-.7-5.5-.9-2.2-.1-5-.5-6.2-.9-1.5-.5-2.3-.3-2.3.4s-.4 1-.9.7c-.5-.3-3.2.1-6 1-3.7 1.2-6.4 3.1-10.1 7.1-2.8 3-4.8 5.9-4.4 6.5.4.5.2 1.3-.4 1.7-.6.4-1.4 3.3-1.6 6.5-.3 3.5-1.1 6.3-2 7-3.4 2.5-3.8 10-.9 16.6.4.8.7 1.9.8 2.5 0 .5.7 2.1 1.5 3.5.7 1.4 1.3 2.6 1.2 2.7-.1.2-.2.4-.1.5.4 1.3 1 6.4 1.4 11.8.6 7.8.8 9.1 1.8 10.7.5.7.6 1.3.3 1.3s.3.9 1.4 2c1.1 1.1 2 2.4 2 2.9 0 1.4-14.1 20.4-16.2 22-1.1.7-1.7 1.9-1.4 2.7.3.8 0 1.3-.5 1.1-.6-.1-1.3.9-1.5 2.2-.5 2.8-3.3 5.3-5.2 4.6-2.3-.8-6.2 4.1-6.2 7.7 0 1.8 2.2 7.9 5 13.8 3.2 6.8 5.1 12.4 5.5 16 .4 3 1 6.4 1.6 7.5 2.1 4.4 4.1 13.3 4.3 18.5.1 4.5-.3 6-2.1 8-1.3 1.3-2.3 2.7-2.3 3 0 .4-1.2.7-2.7.6-3.6-.1-3.3 1.8 1.4 9.1 9.1 14.3 11.6 24.5 11.6 47.3 0 16.5-1.2 28.1-5.5 52-2 11.4-2 21.7-.1 24.3 3.3 4.3 9.7 27.7 7.2 26.1-.8-.4-2.5 6.2-2.1 7.8.1.5-.3.8-.8.8-.6 0-1 .9-1 2s-.4 2-.9 2c-.6 0-.8.9-.6 1.9.4 2.3-1.9 4.6-3.5 3.6-.7-.4-.6.2.2 1.4 1 1.7 1 2.5.1 4-1 1.5-1 2.1 0 2.5.9.3.8.7-.2 1.4-.9.7-1.2 1.9-.7 3.8.8 3.7.7 31.4-.1 32.7-.3.6-.1.7.5.3 1-.6 2.9 7.2 4.8 19.9.7 5 1.8 8.2 3.5 10 3 3.4 4.1 7.6 4.4 17.5.1 5.2.3 9.8.4 10.2 0 .3 2.9 1.6 6.3 2.7 7.6 2.6 12.7 5.9 13.4 8.8.6 2.4 3 3.7 4.7 2.6.7-.4.8 0 .4 1.1-.4 1 .1 2.5 1.3 3.8 1.1 1.2 1.7 2.5 1.4 3-.3.4 0 .8.6.8s.9.4.6.9c-.8 1.2 2.3 7.2 4.8 9.4 1.6 1.4 2.9 1.6 6.5 1.1 2.5-.3 5-1 5.5-1.4.5-.5 1.5-.6 2.2-.3.8.3 1.4 0 1.4-.7 0-.6.5-.8 1-.5.6.3 1-.3 1-1.4 0-1 .6-2.2 1.3-2.4.9-.4.9-.6-.1-.6-.7-.1-1-.6-.7-1.1.4-.6.3-1-.2-.9-.4.1-1.6-.1-2.6-.6-1-.4-2-.5-2.3-.2-.3.3-2.2-1.2-4.1-3.4-2-2.2-3.4-4.1-3.2-4.3 1.2-.9 18.4-3.7 30.9-5.1 8-.8 20.1-2.2 27-3 6.9-.8 17.5-2 23.6-2.5 6.2-.6 16.2-2.1 22.3-3.5 6.2-1.3 15.4-3.2 20.4-4 25.6-4.4 41.7-10.3 63.4-23.2 7.6-4.5 9.3-5.9 9.8-8.5.4-1.8 1.5-3.2 2.6-3.5 1.1-.3 2.8-2.2 3.8-4.2 3.1-6.3 12.2-22.4 15.6-27.6 1.8-2.8 4-6.4 4.9-8.2l1.6-3.2-4.1-1.1c-2.3-.6-6-2.9-8.5-5.2-5.2-4.8-7-9.7-8-22.1-.6-7.3-.4-9 1.5-13.3 2.4-5.5 12.6-16.4 23.6-25.2 3.9-3.1 8.6-7.4 10.6-9.6 3.5-3.7 5.9-4.2 5.9-1 0 2.1 6.3 1.8 9.2-.5 1.4-1.1 4.4-2.6 6.7-3.3 2.5-.8 5.9-3 8.2-5.3 4.4-4.5 13-15.8 12.4-16.3-.1-.2-2.1.6-4.4 1.8-2.3 1.1-4.1 1.8-4.1 1.5 0-.3-1 .1-2.3 1-1.3.8-2.6 1.3-2.9.9-.3-.3-3.2 2-6.4 5-3.3 3.1-6.3 5.6-6.9 5.7-.5 0-2.1.2-3.5.5-2 .3-1-1 4.8-6.4 7-6.5 7.2-6.8 7.2-11.4 0-7.1 1.2-9.5 4.8-9.3 1.7.1 3.8.9 4.7 1.8 2.1 2.1 3.2 2.2 1.5.2-.8-.9-.9-1.5-.2-1.5.6 0 1.8 1 2.6 2.2 1.5 2.1 1.6 2.1 3.6.3 1.1-1 2.9-3.4 4-5.4 1.9-3.3 1.9-3.4.1-1.4-1.1 1.3-2.4 2.3-2.9 2.3s-1.2.7-1.6 1.5c-.3.8-1.1 1.5-1.7 1.5-.8 0-.8-.4.1-1.5 1-1.2.9-1.6-.4-2.1-.9-.3-1.6-1-1.6-1.6 0-.5.4-.7.9-.4 1.2.8 5.1-9 5.1-13 0-3-.2-3.2-2.9-2.9-1.6.2-4.6 1.3-6.7 2.5l-3.9 2-.3-3.2c-.2-1.8-.8-3.9-1.4-4.5-1.5-1.8.2-3.5 4.9-5.2 6.8-2.4 9.1-5.4 18.1-23.6 6.7-13.5 7.2-16.5 6.4-45.3-.2-7.3-2.2-8.5-2.2-1.2 0 2.7-.4 5-1 5-1.1 0-1.6-10.3-1.1-21.4.3-7.7-.9-8.2-2.9-1.1-.7 2.5-1.7 4.8-2.2 5.2-.6.3-.8-.2-.5-1.3.3-1.1 1.3-5.3 2.1-9.5.9-4.2 2.2-10.5 3.1-14 1.8-8 1.9-8.8.1-6.4-1.3 1.8-1.4 1.8-.9-.8.3-1.7.1-2.7-.7-2.7-.7 0-.9-.8-.5-1.9.5-1.7.2-1.9-2.7-1.6-5.3.7-7.4-1.6-14.9-16.9l-7-14.2-9.5-6.3c-10.1-6.7-12.7-9.6-12.2-13.4.1-1.3-.5-3.5-1.5-5-.9-1.4-1.7-3.9-1.7-5.4 0-1.7-1.1-3.8-2.6-5.2-1.9-1.8-2.5-3.2-2.2-5.3.4-2.4-.7-4.1-6.9-10.8-12.8-13.7-29.8-27.1-46.9-36.7-10.2-5.8-28.9-14.2-35-15.8-7.2-1.8-23.8-3-22.9-1.6 1 1.8-12.6 1.3-14.9-.4-1.1-.8-2.8-1.5-3.8-1.5s-1.8-.4-1.8-.9c0-1.1-11.7-4.4-12.9-3.6-.5.3-1.1.1-1.3-.5-.4-1.4-10.6-1.4-21.2 0-10.9 1.4-22.5.6-30-2-9.6-3.3-13.4-3.4-19.1-.6zm-12.9 41.2c-.3.8.1 1.4 1.1 1.4 1.2 0 1.3.3.4 1.4-.9 1-.8 1.5.4 2 .8.3 1.5 1.2 1.5 1.9 0 .8 1.8 6.9 4 13.6 2.2 6.6 4.2 14.7 4.5 17.8.3 3.2 1 6 1.6 6.4.6.3.9 1 .8 1.5-.5 2.6.3 4.4 1.9 4.4 1.2 0 2.1-1.2 2.9-4 .7-2.7.7-4 0-4-.6 0-.7-.3-.4-.7.4-.3 0-1.5-1-2.5-.9-1-1.2-1.8-.8-1.8.5 0-.1-1-1.2-2.3-1.5-1.6-2.2-3.9-2.5-8.2-.2-3.3-.8-6.9-1.3-7.9-.6-1.3-.5-1.7.3-1.2 1 .6 3.5-2.5 2.9-3.6-.1-.2.8.8 2.1 2.2 5.7 6.2 10.2 20 10.8 33 .4 8.8-.3 10.4-8.2 18.5-7.2 7.6-7.3 7.7-8 5-.4-1.5-.2-4.3.4-6.3.6-2.1.9-5.4.6-7.5-.2-2.1 0-4.6.6-5.6.7-1.4.6-2-.5-2.5-.8-.3-1.5-1.4-1.5-2.4s-.3-2.2-.7-2.6c-1.5-1.5-5.9-15.4-8.2-26.1-3.2-14.6-4-19.2-3.9-21 0-1.1-.2-2.9-.6-4-.4-1.1 0-.7.9.8.9 1.6 1.4 3.5 1.1 4.3zm-27.3 47.6c.2 1.3.8 3.2 1.2 4.2.6 1.2.5 1.7-.2 1.3-.6-.4-.8 1.2-.5 4.6.2 2.9.2 4.9-.2 4.6-.6-.6-1.7-7.1-1.9-10.7 0-.6-.5-1.2-1-1.2s-.6-.8-.2-1.8c.4-.9.8-2.2.8-2.9.1-1.9 1.4-.6 2 1.9z"/><path d="M1232.8 874.7c.7.3 1.6.2 1.9-.1.4-.3-.2-.6-1.3-.5-1.1 0-1.4.3-.6.6zM1691.6 916.9c-.4.5.3 2 1.6 3.3 1.5 1.5 2.3 1.8 2.6.9.4-1.1.6-1.1 1.2-.1.7 1.1 1.1 1 2.4-.2 1.3-1.3 1.3-1.8.2-2.7-2-1.6-7.3-2.5-8-1.2zM1778.1 926.6c0 1.1.3 1.4.6.6.3-.7.2-1.6-.1-1.9-.3-.4-.6.2-.5 1.3zM1699.9 928.4c.9 1.1 1 1.6.2 1.6-.6 0-1.1.4-1.1 1 0 .5.7 1 1.5 1 1.8 0 2 1.6.4 2.6-.8.5-.6 1 .5 1.6 1.6.9 1.6 1.1.1 2.8-1.1 1.2-1.4 2.6-1 3.9.8 2.5 2.2 2.7 4.6.5 1.6-1.5 1.7-1.8.3-4-.9-1.3-1.3-2.8-.9-3.4.3-.5.1-1-.5-1-.7 0-.5-.7.4-1.6.9-.8 1.6-1.7 1.6-1.9 0-.2-1.7-1.3-3.7-2.5-2.4-1.4-3.2-1.6-2.4-.6zM1725.6 951.7c-.6 1.4-.5 1.5.5.6.7-.7 1-1.5.7-1.8-.3-.3-.9.2-1.2 1.2zM1725.5 1016.8c-1.5.2-2.5 1.6-3.5 4.9-.7 2.6-1.9 5.8-2.6 7.2-1.1 2.3-1.8 7.2-1.5 11 .1.7.7 1.1 1.6.7 1-.3 1.5.1 1.6 1.2 0 1.4.2 1.4.6.2.3-.8 1.2-2.3 2.1-3.3.8-.9 1.1-1.7.6-1.7-.5 0-.3-.4.4-.8.7-.5 1.3-2.6 1.3-4.8 0-2.1.5-6.3 1.1-9.2.5-3 .8-5.5.6-5.6-.1-.1-1.2 0-2.3.2zM1582.1 1043.7c-.7 1.6-1.2 2.9-1.2 3.1.1.1-.5 1.5-1.4 3.2-2.2 4.2-2 5.2.9 3.9 1.8-.8 2.5-2.1 2.9-5.3.3-2.2.8-4.9 1.2-5.9 1.2-2.8-1.1-1.9-2.4 1zM1572.1 1066.1c-1.6 4.6-1.4 5.2 1.5 4.5 4.1-1.1 5.7-3.1 4.4-5.6-1.6-3.1-4.6-2.5-5.9 1.1zM1619.6 1067.4c-.9 1.4-1.6 3-1.6 3.6 0 .5-.4 1-.8 1s-1.3 1.3-1.9 2.9c-.9 2.4-.7 3.5.8 6 1 1.7 2.3 3.1 2.7 3.1.9 0 3.1-7.3 3.9-13.3.7-5-.9-6.6-3.1-3.3zM1528 1092.1c-5.7 5.7-10.9 11.8-11.6 13.6-.8 1.7-3.7 5.5-6.5 8.3-8.3 8.3-9.4 15.7-3.3 22.1 3.3 3.4 1.2 4-2.3.7-1.3-1.2-2.6-1.8-2.9-1.5-1.3 1.2 2.7 9.6 5.7 12.1s8.9 4.3 10.7 3.2c.5-.3 1.3-3.2 1.7-6.3.4-3.2 1.8-7.9 3.1-10.5 2.6-5.1 4-6.4 2.4-2.4-.9 2.6-.3 6.6 1.1 6.6 1.2 0 6.9-8.6 6.9-10.4 0-2.4-1.9-2.9-4.5-1.2-1.4.9-2.5 1.4-2.5 1 0-.6 2.3-5.3 4.2-8.4 4.8-8.3 5.9-9.1 10-6.9 3 1.6 7.7.3 13-3.6s5.4-5.7.5-7.5c-1.8-.7-2.6-1.4-1.9-1.7.6-.2 1.2-.9 1.2-1.4 0-1.3-2.1-1.1-5.4.6-3.6 1.9-3.9 1.9-2.7-.3.7-1.4.5-2.1-1-3.1-1.4-.8-1.9-2-1.7-3.9.3-2.5.7-2.7 5.1-3 3.3-.2 4.7-.7 4.7-1.8 0-.7-.8-1.4-1.8-1.4s-2.2-.4-2.7-.9c-.6-.6-2.9-1.3-5.1-1.7l-4.2-.6-10.2 10.3zm-10.1 20.5c-3.1 3.3-3.4 2.4-.7-2.6 2-3.7 2.3-4 2.6-2 .2 1.3-.6 3.2-1.9 4.6zm-3.9 3.8c0 .2-.7.7-1.6 1-.8.3-1.2.2-.9-.4.6-1 2.5-1.4 2.5-.6zm1.2 15.8c-.7.7-1.2.8-1.2.2 0-1.4 1.2-2.6 1.9-1.9.2.3-.1 1.1-.7 1.7zM1556 1087c-1.3.8-1.3 1 .2 1 .9 0 2-.5 2.3-1 .8-1.3-.5-1.3-2.5 0zM1619.4 1102c.2.8.7 3.5 1 6 .5 3.2.3 4.1-.4 3-.8-1.2-1-1.1-1 .6 0 2.3-2 7.4-7.5 18.9-6.4 13.7-11.1 31.3-14.3 54.4-.9 6.1-2.5 10.2-9.1 23.6-6.2 12.3-8.1 17.1-8.1 20.3 0 4.6 1.3 6 3.8 4 1.8-1.5 6.9-4 9-4.4.8-.1 1.9-.9 2.5-1.7.7-.8 2.5-1.8 4.2-2.2 4.7-1.1 15.2-7.3 18.9-11.3 10-10.7 13.5-14.8 13.6-15.8 0-.6 1.1-2.4 2.5-4 2.2-2.5 6.5-10.4 6.5-11.9 0-1.1-3.8 1.1-8 4.6-4.7 3.9-14.8 9.4-15.7 8.6-.2-.3 0-1.4.6-2.5.9-1.6.5-3.4-2-8.9-2.5-5.4-3.3-8.5-3.7-15.3-.5-9.5 1.6-23.1 4.7-30.3 4.8-11.1 6.7-32.5 3.3-35.9-1.1-1.1-1.2-1-.8.2zM1553 1113.9c-5.2 3.9-10.1 8.4-9.6 8.9.7.6 12.3-7.1 13.5-9 1.7-2.8-.1-2.7-3.9.1z"/><path d="M1609.1 1124.6c-1.2 1.5-2.1 3.2-2.1 3.8-.1 1.8-3.7 5.6-5.4 5.6-2.1 0-2-1.6.1-2.4 1.5-.6 1.5-.8.3-1.6-1.1-.7-2.3.7-5.2 5.8-2 3.7-4.2 8.9-4.9 11.7-.6 2.7-1.7 6.1-2.4 7.5-.6 1.4-2.4 7-3.9 12.5-1.6 5.5-3.4 11.6-4.2 13.5-.7 1.9-1.8 6.2-2.4 9.4-.8 5-.7 6.4.6 8.3.8 1.4 1.8 5.6 2.1 9.4.4 4.2 1 6.8 1.6 6.6.6-.2 3.5-5.5 6.4-11.8 4.6-10.1 5.4-12.9 6.8-22.9 2.7-20.8 10.2-50.1 13.6-53.3 1-1 1.9-2.4 1.9-3.2 0-2.1-.6-1.9-2.9 1.1zM1542.3 1126c-2.2.9-4.7 4.5-4.1 5.9.2.4 2-1 4.2-3.1 3.9-3.8 3.9-4.4-.1-2.8zM1194 1156c0 .5.5 1 1.1 1 .5 0 .7-.5.4-1-.3-.6-.8-1-1.1-1-.2 0-.4.4-.4 1zM1521 1163c-.6 1.1-1 3.3-.8 4.8l.3 2.7 2.3-2.3c2.4-2.4 2.7-6.2.5-6.9-.6-.2-1.7.5-2.3 1.7zM1657.1 1161.9c-1 .7-1.1 1.3-.2 3 1.5 2.8 1.8 2.7 1.9-.9 0-1.7 0-3-.1-3s-.8.4-1.6.9zM1566 1183.2c0 .9 1.2 1.4 3.3 1.3 4.6 0 5-1.9.5-2.3-2.7-.2-3.8.1-3.8 1zM1565.4 1189.8c-.9 2.6.5 6.1 4.6 10.9.6.7 1.5 2.4 2.2 3.8.9 2 1.4 2.3 1.9 1.2.9-1.5.1-5.7-1.1-5.7-.5 0-.7-1.6-.6-3.5.2-2.4-.1-3.5-1-3.5-1.4 0-1.8-1.2-1.4-4 .1-.8-.1-1.2-.6-.8-.4.4-1.2.3-1.9-.2-.8-.7-1.4-.1-2.1 1.8zM1544 1205.8c-1.3 1.4-1.3 1.5.1 1 1.2-.5 1.5-.1 1.1 1.8-.3 1.9-.1 2.3 1.1 1.8 2.4-.9 2.8-3 .9-4.7-1.5-1.3-1.9-1.3-3.2.1zM1576.5 1209.1c-.5 1.4-.1 2.7.9 3.7 1.3 1.4 1.6 1.4 1.6.2 0-.8.3-2.5.6-3.8.8-2.9-2.2-3.1-3.1-.1zM1525.9 1210.7c-4 4.8-7 10.6-6 11.3.9.5.7 1.1-.4 2-.9.8-2.9 4.2-4.5 7.7s-3.8 7.6-4.9 9.2c-2.8 3.9-2.6 5 .9 5.8 1.7.3 3.5 1.4 4.1 2.4 1.3 2.4 3 2.4 5.7-.1 2.8-2.7 3.3-2.5 2.8.7-.7 3.5.9 5.3 4.2 4.7 4.6-.8 5.1-1.2 5-4.4-.1-1.6.2-3.3.5-3.7.4-.3-.4-2-1.6-3.7-2.3-3.2-3.1-10.9-2.9-26.9.1-6.9-.5-7.9-2.9-5zM1557.6 1210.7c-1.4 1.4-.5 3.1 1.4 2.6 2.2-.6 2.6.7.8 2.5-.9.9-.7 1.3.5 1.8.9.3 1.5.9 1.2 1.3-.2.4.2.8 1 .8 1 0 1.1-.6.4-2.4-1.2-3.2-1.1-3.3.4-2.7.8.3 1.9-.2 2.6-1 1-1.2.9-1.5-.6-2-3.4-1-7.1-1.4-7.7-.9zM1569.7 1211.6c.9.4.9 1.1.1 3-.6 1.3-1.5 2.4-2 2.4-1.6 0-.8 3.7 1.2 5.5 1.2 1.1 2 1.3 2 .6 0-.7.5-.9 1-.6.7.4.9-.2.5-1.8-.4-1.4-.2-2.8.4-3.1 2.7-1.7-.2-6.8-3.6-6.5-.4 0-.3.3.4.5zM1540 1215.9c0 1 3.1 3.1 4.5 3.1 1.1 0-.5-2-2.6-3-1.2-.7-1.9-.7-1.9-.1zM1552.6 1224.7c-.7 1.6.9 3.3 3.1 3.3.6 0 2 .3 3 .7 1.7.6 1.6.5-.2-1.6-3-3.5-5.2-4.4-5.9-2.4zM1511.5 1225.1c-1.6.5-4.3.7-5.9.4-1.8-.3-3.7.2-5.5 1.4-1.4 1-5.1 3-8.1 4.3-3 1.4-7.7 3.6-10.5 4.9-2.7 1.2-5.6 2.4-6.3 2.5-.7.1-2.4.9-3.7 1.8-1.3.9-3.4 1.6-4.5 1.6-1.4 0-1.9.4-1.4 1.2.4.7.3.8-.4.4-1.3-.8-15.3 6.1-16.5 8.1-.4.7-1.9 1.3-3.2 1.3-1.4 0-2.5.4-2.5.9s.8.7 1.9.4c2.4-.6 5.1 2.2 5.1 5.5 0 1.9.3 2.3.9 1.4.6-1.1 1-1 1.5.4.6 1.6.8 1.6 1.6.4.7-1.1 1-1.1 1-.2 0 1.6 5.2.4 6.3-1.5.5-.7 1.2-1.1 1.7-.8 1.4.8 5-1.3 4.7-2.8-.1-.7.4-1.1 1.1-.9.8.1 2.8-.6 4.5-1.7 2-1.2 6.7-2.3 12.5-3 5.2-.7 10.4-1.9 11.7-2.7 3.3-2.1 10.1-11.2 12.1-16 .9-2.1 2.5-4.9 3.7-6.2 1.1-1.2 1.9-2.2 1.6-2.1-.2 0-1.7.5-3.4 1zm-11.5 12.3c0 .3-.4.8-1 1.1-.5.3-1 .1-1-.4 0-.6.5-1.1 1-1.1.6 0 1 .2 1 .4zM1566.8 1239.3c-1.5 1.2-1.5 1.4.3 2.5 1.7 1.1 1.9.9 1.9-1.3 0-2.9 0-2.8-2.2-1.2zM1439.5 1254.1c-1.1 1.7.1 2.1 1.5.4.8-.9.8-1.5.2-1.5-.6 0-1.4.5-1.7 1.1zM1437.2 1257.9c-1 .6-1 1 .2 2 .9.7 2.1 1.1 2.7.9 1.5-.5 2.1-3.8.7-3.8-.6 0-.8.7-.4 1.5.3.9 0 1.5-.9 1.5s-1.2-.6-.9-1.5c.7-1.7.4-1.8-1.4-.6zM1307.5 1262c-.3.5-.2 1 .4 1 .5 0 1.3-.5 1.6-1 .3-.6.2-1-.4-1-.5 0-1.3.4-1.6 1zM1216.2 1265.1c-3 4.8-5.3 14.9-4.9 21.7.3 3.7-.3 15.2-1.3 25.7-2 21.6-5.2 35.3-10 42.3-3.6 5.1-3.9 7.2-.9 6.7 6.8-1.3 12.4-9.3 15.4-21.7 3-12.4 4.4-53.8 2-59.9-.3-.8-.1-2.9.6-4.5 1.4-3.8 2.3-12.4 1.2-12.4-.4 0-1.4.9-2.1 2.1zM1580.6 1268.9c-1.1 1.2-1.4 2.1-.8 2.1.7 0 1.2.5 1.2 1.1 0 .8-.5.8-1.5-.1-2.2-1.8-4.8-.5-4 2 .6 2-1.4 5-3.4 5-.6 0-1.1.4-1.1 1 0 .5-.9 1.9-2.1 3.1-1.3 1.3-1.7 2.5-1.2 3 1.3 1.3 11.4 4.9 10.7 3.8-.3-.5.2-.9 1-.9.9 0 1.6-.4 1.6-.9s.9-1.3 2.1-1.6c1.1-.4 2.7-2.2 3.6-4 1.5-3.2 1.5-3.5-1.3-9.5l-2.9-6.2-1.9 2.1zM1192.3 1369.1c-.9 2.4-.9 3.9 0 6.8.7 2 1.4 10.1 1.5 18.6.3 13.5.1 16-2.2 24.4-6.5 24.2-5.7 53.1 1.8 61.8l2.4 2.8.7-5c.4-2.8 1.3-7.7 2.1-11s1.6-6.9 1.8-8c.8-4.4 2-8.2 4.4-13.5 1.4-3 2.6-5.7 2.7-6 .1-.3.7-1.8 1.4-3.5 2.8-6.8 3.9-28 2.1-40.6-.5-3.6-1-8.1-1.1-10-.2-4.2-1.9-11-3.2-12.7-1.4-1.8-4.8-1.5-8.2.8-3.9 2.6-4.5 2.5-4.3-.5.1-1.4.6-2.5 1.1-2.5 1.2 0 .4-4.3-.8-4.7-.6-.2-1.6 1.1-2.2 2.8zM1113.7 1388.7c-.4.3-.7 1.1-.7 1.7 0 .6.5.5 1.2-.2.6-.6.9-1.4.7-1.7-.3-.3-.9-.2-1.2.2zM1111.8 1448.4c-1.6 1.6-7.9 5-9.3 5.1-.5 0-1.6 1.3-2.4 3-1.2 2.4-1.2 4.5-.3 12 1.3 10.2 2 14.9 2.7 18.5 1.2 6 1.5 7.7 2 11.5.3 2.2 1.5 6.5 2.6 9.5 2.8 7.5 2.7 17.7-.2 23.2-.5.9-.8 2.1-.7 2.5.1.4-.2 3.5-.6 6.8-.5 3.3-1 8.6-1.1 11.7-.2 3.2-.6 7-.9 8.5-.3 1.6-.1 5.5.3 8.8.7 5 .9 5.3 1 2.1 0-2.2.8-6.4 1.7-9.5.9-3.1 2-6.7 2.4-8.1.4-1.4.5 1.8.3 7-.4 8.1-.2 10.4 1.7 15.3 1.2 3.1 2.5 5.5 2.9 5.2.5-.2.8-3.6.9-7.4 0-3.8.4-7.6.9-8.3.4-.7 1.3-2.9 2-4.8 1.1-3.1 1.1-2.7.7 4-.4 5.6-.1 9.5 1.4 15.2 1.1 4.2 1.8 8.9 1.6 10.5-.2 2.2.5 3.8 2.8 6.3 2.7 3 2.9 3.5 1.4 4.6-2.6 1.9 9.8 3.8 19.8 3.1 13.5-1 18.6-2.5 22.5-6.5 2.1-2.3 4.4-3.7 6.2-3.8 1.5-.1 4.4-1.4 6.3-2.9 3.6-2.7 4.6-5 6.2-13.9.4-2.2 1.8-6.7 3.2-10 3.2-7.9 3.4-19.6.4-25.6-1.1-2.3-1.5-4.1-.9-4.3 1.2-.4.3-4.5-1.6-7.2-1.4-1.8-1.7-1.5-4.5 4.6-8 17.1-20.5 30.1-26 27-1.2-.7-2.8-.2-5.7 1.4-3.2 1.9-4.3 2.1-5.5 1.2-.9-.7-1.5-1.7-1.5-2.2.1-1.8 3-5.5 4.3-5.5.6 0 2-.9 2.9-2 1-1.1 2.4-2 3.2-2 .8 0 1.2-.3.8-.6-.3-.4 0-2.1.8-4 .7-1.8 1.4-5.2 1.5-7.6.3-6.2.1-7-1-6.3-.6.4-.8 1-.5 1.5.3.5-.4 1.4-1.5 2-1.1.6-2 .8-2 .4s-.9.1-1.9 1c-1.5 1.4-2.9 1.6-6.1 1.1-3.2-.5-4.6-.3-6.1 1.1-1.8 1.7-1.9 1.6-1.9-1.2 0-2.6-1.2-7.9-4-18.4-2.2-8.1-3.3-18.5-3.4-34.5-.2-16.9-.2-17.1-3.6-25-2.1-5.2-4.7-9.3-7.2-11.8-4.3-4.1-5-4.3-7-2.3zm25.2 107.7c0 2.4-.4 3.8-1 3.4-1.7-1-1.1-7.5.7-7.5.2 0 .3 1.8.3 4.1zm41.7 16.6c-.4 3.1-2.7 4.4-2.7 1.6 0-1.6 1.7-4.3 2.7-4.3.2 0 .2 1.2 0 2.7zM1206.7 1467.4c-.4 1-1.8 6.7-3.2 12.7-1.3 6-4.4 15.5-6.9 21.1-6 14-6 14.1-3.7 18.5 2.8 5.3 12.2 15.3 11.4 12.1-.3-1.2-.9-2.8-1.4-3.3-1.1-1.4-1.6-5.9-.6-6.3 2-.6 3.5 0 4 1.8.6 2.5 3.3 2.6 3.9.2.2-.9.3-9.2.2-18.3-.3-25.6-2-43-3.7-38.5z"/><path d="M1181 1487.8c0 .6-1.1 3.5-2.5 6.4-1.4 2.8-2.5 5.8-2.5 6.5 0 .7-.7 1.3-1.6 1.3-.8 0-1.2.4-.9 1 .3.5-.5 2.1-1.8 3.4-1.3 1.3-3.4 4.5-4.7 7-1.2 2.5-2.6 4.8-3.1 5.2-.5.3-.6 1.2-.1 2.1.6.9.4 3.1-.5 5.4-1.2 3.7-1.2 4.2.9 7 1.4 1.9 2.4 2.5 2.7 1.7.2-.7 1.7-2.6 3.3-4.3 1.6-1.7 2.8-4.1 2.7-5.5 0-1.4-.3-1.9-.6-1.3-1 2.5-2.2 1.3-1.3-1.3 1.3-3.3 1.3-4.7 0-3.9-1.6 1-1.2-1.1.5-2.5 2.2-1.8 4.8-7.7 4-8.9-.3-.6-.2-1.1.3-1.1s1.7-2.1 2.6-4.8c.9-2.6 2.4-6.1 3.3-7.9 1.1-2.3 1.2-3.6.4-5-.6-1-1.1-1.2-1.1-.5zM1065 1492c0 .5.5 1 1 1 .6 0 1-.5 1-1 0-.6-.4-1-1-1-.5 0-1 .4-1 1zM1104 1577c0 .5.5 1 1.1 1 .5 0 .7-.5.4-1-.3-.6-.8-1-1.1-1-.2 0-.4.4-.4 1zM1143 1612.5c-1.4.8-3.8 1.5-5.5 1.5-1.6.1-3.9.5-5 1-1.8.7-1.7.9 1.1 2 1.8.6 3.4 2 3.7 3.1.3 1 .1 1.7-.4 1.3-.5-.3-.9.2-.9 1.1 0 .9-1.3 2.9-3 4.5-2.9 2.9-4.1 7-1.9 7 .6 0 .9.6.6 1.2-.2.7-1.1 1.1-1.8.9-.8-.2-3-.3-4.9-.2-3.8.1-5.7 1.8-12.1 10.8l-4 5.8 5.3.8c2.9.4 7.9.5 11.1.2 3.4-.4 5.7-.2 5.7.4 0 .9-1.6 1.4-7.9 2.6-3.4.6-8.1 2.9-8.1 3.8 0 .5-.4.5-1 .2-.5-.3-1-.1-1 .4 0 .6.5 1.1 1 1.1 1.9 0 1 2.1-1.2 2.9-2 .8-2.1 1-.6 1.6 1 .4 1.6 1.1 1.3 1.5-.3.5-.1 1.1.5 1.5.5.3 1 1.8.9 3.3 0 1.5-.3 2.1-.6 1.4-.4-1-.9-.8-2 .7-.8 1.2-1.1 2.6-.8 3.1.3.6.2 1-.2 1-1.6 0-1.5 6.8.1 7.7.8.5 1.7 2.4 1.9 4.3.5 4.7 2.9 9.5 4.6 9.5.9 0 2.5-3.2 4.2-8.2 1.5-4.5 3.4-9.2 4.3-10.4 1.1-1.6 1.2-2.7.5-4.1-.8-1.5-.7-2.3.8-3.4 3-2.3 5-3.4 7.5-3.7 2.9-.5 5.5-4.9 6.8-11.7 1.2-6.4.6-9-2.2-9-2 0-4.7-2.5-4.8-4.4 0-.4 1.6-.5 3.5-.2l3.6.7-.7-6.3c-.3-3.5-.9-6.7-1.1-7.1-.3-.5.4-1.1 1.5-1.4 1.1-.2 3.4-2.2 5.1-4.3 1.7-2.1 4-4.1 5.1-4.5 3.2-1 2.3-2.7-1.2-2.3-2 .2-3.2.8-3 1.5.1.7-.2 1.3-.8 1.3-1.8 0-1.1-3.9 1.1-6.1 1.6-1.6 2.9-2 5-1.5 1.6.3 2.9.1 2.9-.4 0-.6.9-1 1.9-1 1 0 2.1-.7 2.5-1.5.6-1.7-2.9-2.2-3.9-.5-.3.5-1.5 1-2.6 1-1 0-1.9-.5-1.9-1 0-1.5-6.1-1.1-9 .5zM1185.3 1618.7c-1.3.2-2.3.9-2.3 1.5s-1.1.8-2.5.5c-2-.3-3.1.2-5 2.7-3.7 4.9-6.9 12.6-5.7 13.8 1.3 1.3 4.3.3 4-1.4-.2-.8 1.1-1.2 4-1.3 2.3 0 4.2.3 4.2.7 0 1.1-2.9 3.6-5 4.3-3 .9-2.4 2.3.8 1.8 5.7-.9 7.2-1.4 7.2-2.4 0-.5.9-1.9 2-3.1 1.3-1.4 1.9-3.4 1.8-5.7 0-2 .4-4.7 1.1-5.9.8-1.5.8-2.2.1-2.2-.8 0-.8-.6 0-2 1.1-2.1.5-2.3-4.7-1.3zM1067.1 1627.3c-.6.8-.8 1.7-.4 2 .3.4.1.7-.5.7-1.5 0-1.5 2-.2 4 1.4 2.1 2.8-.2 2.8-4.6 0-3.8-.1-3.9-1.7-2.1zM1206.7 1638.3c-.4 1-.7 3.7-.7 6 0 3.8.1 4 1.6 2.5 1.3-1.2 1.4-2.4.7-5.9-.7-3.3-1.1-3.9-1.6-2.6zM1173.8 1644.8c-.9 1.1-.9 1.4-.1.9.8-.5 1.5.1 1.9 1.8.3 1.3 1 2.2 1.5 1.9.5-.3 2.1.6 3.5 1.9 3 2.8 6.4 2.5 6.4-.4 0-1.1.7-1.9 1.5-1.9 1.9 0 1.9-1 0-3.7-1.3-1.8-2.5-2.2-7.5-2.2-4.2.1-6.3.5-7.2 1.7zM1149.4 1654.8c.4.7.1 1.2-.8 1.2-1.2 0-2.2 1.6-3.1 5-.1.3-.5 1.3-.9 2.2-1.4 3.1 0 4.7 3.8 4.4 2-.1 3.9-.5 4.2-.9 1-.9-1.5-11.5-2.8-12.3-.7-.4-.8-.2-.4.4z"/><path d="M1128 1677c0 .5.5 1 1 1 .6 0 1-.5 1-1 0-.6-.4-1-1-1-.5 0-1 .4-1 1zM1146.6 1685.9c-.6.9 2.8 4.3 6.3 6.1 1.9 1 2.6.9 3.8-.2 2-2 .8-4.2-3.1-5.6-3.8-1.4-6.3-1.5-7-.3zM1126.2 1690.2c-2.9 3.7-3.2 20.8-.3 20.8.8 0 2.4-4.2 4.1-10.8 1.9-7.3-.6-13.9-3.8-10zM1183.7 1694.1c-2.2 1.7-3 1.9-4.2.9-.8-.7-2.1-1-3-.7-.8.4-1.7.2-2-.3-.9-1.5-6.5-1.2-7.1.4-.6 1.6 2.2 7.6 3.5 7.6.5 0 2.3 1.3 3.9 3 1.7 1.6 3.7 3 4.5 3 .8 0 3.3 3.8 5.7 8.4 3.7 7.5 4.3 9.4 4.7 17.3.7 11.1 2.3 14.7 6.4 14.1 1.6-.3 2.9 0 2.9.5s.6.7 1.3.4c.6-.2 1.1-1 .9-1.6-.1-.6.2-1.1.7-1.1 3.2 0 3.7-15.5 1-26.5-.5-2.2-1.1-4.5-1.2-5.2-.2-.7-.6-1.5-.9-1.9-.4-.3-.4-1.2-.1-2 .4-1 0-1.2-1-.8-1.2.4-1.8-.5-2.7-3.8-1.7-6.8-3-9.4-5.6-11.7-3-2.6-4.2-2.6-7.7 0z"/><path d="M1106.4 1700.5c-.4.8-.4 2.8-.1 4.3 2.2 10.7 2.7 14.1 2.1 17.4-.4 2.9-.2 3.8 1.3 4.6 1.6 1 1.5 1.4-1.9 4.5-2.5 2.3-3.8 4.3-3.8 6.1 0 3 .3 3-7.9 1.1-3.5-.9-6.6-1.4-6.8-1.2-.7.8 1.8 6.2 3.9 8.5l2.2 2.2 2.3-2.2c2.6-2.5 3.1-1.3.7 2-1.4 2.1-1.3 2.5 2.7 8.3 3.9 5.5 4.4 5.9 5.6 4.3 1.2-1.7 1.3-1.6 1.3.4 0 3 3.7 6.5 6.1 5.9 1-.3 1.9-.1 1.9.5 0 .5.5.6 1 .3.6-.4 1-1.2.9-1.8-.3-2.6.2-3.6 1.9-3.5.9.1 2.7-.2 3.9-.6 2.1-.7 2.2-.5 1.7 2.1-.5 2.6-.3 2.9 3.5 3.9 2.2.6 4.6.7 5.3.3.7-.5 3.2-.9 5.5-.9 3.4 0 4.6-.5 5.8-2.4 2.9-4.5 15-6.2 15-2.1 0 1.2 1.4 2.7 3.5 4 3.6 2 11.6 10.3 13.6 14 .6 1.1 2.4 2.4 4.1 3 1.6.5 4.1 1.8 5.6 2.7 5.2 3.5 5 1.7-.4-4-7.9-8.1-9.4-10.8-2.3-4 3.6 3.5 6.8 5.8 8.2 5.8 1.2 0 2.2-.1 2.2-.3 0-2.2-3.4-16.6-4.6-19.4-.8-2.1-1.8-4.9-2-6.3-.3-1.3-.9-2.7-1.3-3-2.3-1.5-2.6-4.5-1.5-12.8 2.1-14.2 1.8-19-1.2-22.9-1.4-1.8-3.4-3.3-4.5-3.3-1.3 0-2.4-1-3-3-1-2.8-2.4-3.5-5.6-3.1-.7.1-1.3-.2-1.3-.6 0-.4-1.8-2.8-3.9-5.3l-3.9-4.4-1.1 5.4c-.6 3-1.3 8.2-1.6 11.4-.3 3.3-.7 6.1-.9 6.4-.3.2-1-2.4-1.7-5.7-1-5.5-1.3-5.9-2.5-4.4-1.3 1.7-1.7 1.5-5.2-2.5-3.5-3.9-4.1-4.2-8.9-4.2-6.7 0-8 1.6-13.3 15.8-1.2 3.1-6.5 7-7.8 5.7-.3-.3.2-1.9 1.1-3.4 2.1-3.6 2.1-5.5.2-11.2-1.6-4.6-5.2-9.3-9.5-12.2-3-2.1-3.9-2.1-4.6-.2zm65.4 25.5c-1.2 3.7-3.4 5.4-2.3 1.9.7-2.3 2.4-4.9 3.1-4.9.1 0-.2 1.4-.8 3zm-42.1.6c-.3.3-1.2.4-1.9.1-.8-.3-.5-.6.6-.6 1.1-.1 1.7.2 1.3.5zm40.3 5.4c0 .5-.9 1-2.1 1-1.1 0-1.7-.5-1.4-1 .3-.6 1.3-1 2.1-1s1.4.4 1.4 1zM1010.6 1745.8c-.3.5.4 1.6 1.5 2.5 1.8 1.6 2.2 1.6 4 .3l2.1-1.4-2-1.1c-2.4-1.3-4.9-1.4-5.6-.3zM1068.6 1749.2c-2.4 1.4-1.9 3.6 1.2 5.2 3.9 2 13.1 3.8 17.1 3.4 3.3-.3 3.4-.4 1.7-2-.9-1-3.5-2.2-5.7-2.8-2.2-.6-3.7-1.5-3.5-1.9.8-1.3-8.9-2.9-10.8-1.9z"/><path d="M1192 1750.4c-1.6 1.6-1.1 6.2.9 8.7l1.8 2.2 3.1-2.1c1.6-1.2 3.7-2.2 4.5-2.2.9 0 1.9-.5 2.2-1.1 1-1.5-3.1-5-4.9-4.3-1 .4-1.6.1-1.6-.7 0-1.6-4.6-1.9-6-.5zM990.4 1753c-.6.6-2.4 1.3-4 1.6-1.6.3-3.3 1-3.9 1.6-.7.7 0 .9 2.5.4 1.9-.4 5.6-1 8.3-1.3 5.1-.6 6.1-1.7 2.5-2.7-3.2-.8-4.3-.7-5.4.4zM981.5 1781.8c-11.6 3.7-16.5 6.3-19.2 10.4-4.3 6.5-8.5 16.3-8.9 20.8-.2 2.5-.6 6-1 7.7-.5 2.9-.4 3.3 1.4 3.3 1.1 0 3.2-.4 4.6-1 1.9-.7 2.6-.6 2.6.3.1.8.5.6 1.3-.4 3.9-5 6.9-8.1 7.4-7.6.7.7-4.6 9.2-8.3 13.3-3.2 3.5-6.7 11.1-5.9 12.4.8 1.3 5.7 1.2 11.5-.1 5.9-1.3 13.7-6.1 28.7-17.6 12.1-9.2 16.6-14.2 19.6-21.5 1.4-3.4 1.4-3.7-.1-4.1-1.4-.4-1.3-.6.5-1.2 1.6-.5 2.5-2 3.3-5.6l1.2-4.9 2.9 2.1c2.9 2 8.5 2.3 8.3.4-.1-1.2-5.7-4-13.4-6.8-3.9-1.4-8.7-2.1-16.5-2.4-9.9-.3-11.9 0-20 2.5zm4.1 17.5c-1.4 2.4-3.8 5.4-5.3 6.8l-2.7 2.4 1.7-2.5c.9-1.4 3.1-5 4.8-8 1.8-3 3.4-5 3.6-4.3.3.7-.7 3.2-2.1 5.6zM1133.3 1782l-2.2.9 2.5 4.6c3.2 5.5 5 5.8 5 .7 0-2 .4-4.5.8-5.5.7-1.4.4-1.7-1.5-1.6-1.3 0-3.4.4-4.6.9zM955 1791c-1.9.5-5.2 1.2-7.2 1.5-3.8.6-4.3 1.4-4 6 .6 7.7 2.6 8.3 7.3 2.2 1.8-2.3 4.6-5.7 6.3-7.5 3.2-3.4 3.1-3.5-2.4-2.2zM936.7 1812.4c-.7 1.6.1 2.6 2 2.6.7 0 1.3-.9 1.3-2 0-2.3-2.5-2.7-3.3-.6zM933.2 1819.3c-.7.8-.9 1.6-.6 2 .3.3-.8 1.5-2.5 2.8-2.7 2-3 2.8-2.9 6.8.1 2.5.7 5 1.3 5.6.5.5 2.3 2.5 3.9 4.2l3 3.3h-2.8c-1.5 0-3.7-1-5-2.4l-2.4-2.3-1.1 2.4c-1.8 3.9-1.3 5.8 2.2 7.5 5.9 3.1 11.9 2.8 13.5-.7 1.5-3.4 1.6-3.2-1.5-4-2.1-.5-2.4-.8-1.2-1.6.7-.5 2.5-.9 3.8-.9 1.8 0 2.2-.4 1.6-1.8-2.8-6.5-3.8-10.4-3.9-15.7-.1-5.2-.4-6-2.2-6.3-1.1-.2-2.6.3-3.2 1.1z"/><path d="M952 1831.5c0 .9.5 1.5 1.1 1.3.6-.2 1.1-.8 1.1-1.3s-.5-1.1-1.1-1.3c-.6-.2-1.1.4-1.1 1.3z"/></svg>